<?xml version="1.0" encoding="UTF-8"?>
<svg id="uuid-76e6b7cd-79f6-47e2-a152-856768359c03" data-name="Livello 2" xmlns="http://www.w3.org/2000/svg" xmlns:xlink="http://www.w3.org/1999/xlink" viewBox="0 0 35.5 35.07">
  <defs>
    <clipPath id="uuid-cfc26b0c-6a55-487d-bd91-c0edbd3c94b3">
      <path d="M34.19,.44c.81,.74,.88,1.53,.89,2.38,0,.74-.16,1.49,.3,2.25,.26,.43,.04,1.17-.03,1.76-.03,.33-.28,.65-.27,.97,.03,1.94-.29,3.81-.69,5.72-.8,3.81-2.45,7.98-4.57,10.87-1.25,1.71-3.09,3.42-4.86,4.9-1.3,1.09-2.75,1.88-4.21,2.65-1.03,.55-2.21,.83-3.31,1.25-1.11,.43-2.27,.69-3.39,1.05-1.04,.33-2.2,.37-3.3,.38-1.07,.02-2.03,.56-3.14,.42-1.02-.13-2.07-.11-3.1,0-1.15,.12-2.19-.38-3.29-.45-.71-.64-.85-1.46-.87-2.38-.03-1.17-.24-2.33-.33-3.49-.07-.94,.51-1.78,.39-2.77-.1-.85-.28-1.79,.33-2.58-.05-1.82,.53-3.51,1.11-5.19,1.17-3.35,2.62-6.55,5.08-9.19,2.34-2.52,4.61-4.57,8.37-6.15,2.25-.94,4.48-1.97,6.99-2.08,.74-.67,1.74-.1,2.52-.51,.81-.42,1.65-.15,2.47-.2,.91-.06,1.82-.01,2.74-.01,.85,0,1.71-.03,2.55,.02,.32,.02,.62,.26,.95,.34,.27,.07,.56,.05,.69,.06Z" style="fill: none;"/>
    </clipPath>
  </defs>
  <g id="uuid-0d4a6dd3-5b55-42b3-add3-7bf7574aea6e" data-name="Livello 1">
    <g style="clip-path: url(#uuid-cfc26b0c-6a55-487d-bd91-c0edbd3c94b3);">
      <g>
        <path d="M-10.41,56.42c-.22-.14-.42-.26-.63-.4-.13,.08-.27,.12-.32,.21-.21,.38-.52,.5-.93,.58-1.44,.27-2.89,.55-4.19,1.23-2.14,1.12-3.42,2.84-3.45,5.36,0,.92,.17,1.79,.43,2.66,.18,.61,.53,1.13,.98,1.58,.38,.38,.79,.77,1.05,1.24,.77,1.38,.55,2.6-.51,3.67-.52,.52-1.01,1.05-1.84,1.28h-1.05c-.07-.09-.15-.2-.27-.36-.12,.05-.24,.1-.43,.18-.91-.41-1.53-1.22-2.17-1.97-.54-.63-.99-1.35-1.4-2.08-.71-1.29-1.14-2.68-1.41-4.13-.17-.94-.17-1.87-.15-2.8,.03-1.72,.44-3.37,1.02-4.99,.5-1.4,1.33-2.62,2.3-3.71,.59-.66,1.33-1.25,2.1-1.7,1.8-1.04,3.73-1.74,5.8-2.08,1.45-.24,2.91-.42,4.37-.57,.66-.07,1.32-.15,1.98-.15,.15,0,.29,.04,.39,.06,.25-.09,.47-.22,.7-.23,1.6-.12,3.21-.24,4.82-.2,.66,.01,1.34-.24,1.97-.14,1.27,.2,2.56,0,3.81,.19,1.64,.24,3.28,.11,4.92,.14,1.65,.04,3.3,0,4.95,0h.91c.02,.33,.04,.58,.06,1.03,.24-.23,.34-.32,.43-.4-.04-.16-.08-.29-.12-.42,.47-.21,1.53-.28,2.06-.16,.29,.06,.59,.11,.89,.13,.81,.06,1.62-.06,2.44,.16,.53,.14,1.16,.12,1.67-.4-.01-.15-.03-.34-.05-.55-1.8-.48-3.56-.93-5.32-1.41-1.87-.51-3.74-1.04-5.6-1.55-.78-.21-1.56-.41-2.33-.63-.89-.24-1.78-.5-2.67-.75-1.26-.35-2.53-.71-3.86-1.08-.54-.6-.55-1.42-.49-2.24,.04-.64,.5-1.05,.97-1.37,.74-.51,1.53-.94,2.33-1.35,.39-.2,.85-.31,1.28-.36,2.43-.26,4.71-1.08,7.01-1.84,2.32-.77,4.66-1.47,7-2.21,.22-.07,.44-.17,.66-.26-.02-.33-.19-.46-.46-.47-.12,0-.24,0-.37,0-6.78-.06-13.55-.12-20.33-.18-.67,0-1.35-.02-2.02,0-.57,.03-1.14,.18-1.7,.16-2-.07-3.61-.82-4.46-2.76-.05-.11-.11-.21-.17-.32,0-.43-.07-.87,.01-1.28,.26-1.22,1.05-2.02,2.23-2.38,.51-.16,1.07-.2,1.61-.2,7.31-.01,14.62,0,21.93,0h1.03c.09-.11,.19-.21,.32-.37h.87c4.28,0,8.56,.07,12.84-.03,1.82-.04,3.64-.14,5.47-.15,.3,0,.61,0,.93,0,.07,.19,.13,.35,.22,.59,.14-.14,.26-.25,.42-.4,.18,0,.42,.01,.66,0,1.12-.06,2.24-.11,3.35-.18,.59-.04,1.1,.06,1.51,.55,.39,.46,.89,.83,1.26,1.3,.58,.76,.7,1.68,.54,2.59-.15,.83-.66,1.53-1.19,2.19-.84,1.03-1.98,1.5-3.23,1.81-2.29,.57-4.55,1.21-6.84,1.79-2.46,.63-4.88,1.39-7.27,2.24-.9,.32-1.79,.65-2.69,.99-1.05,.4-2.14,.52-3.24,.68-.61,.09-1.19,.36-1.75,.54-.16,.31-.28,.55-.38,.74,.08,.61,.5,.88,.93,1.06,2.8,1.13,5.64,2.1,8.59,2.79,1.86,.43,3.68,1.01,5.52,1.52,1.44,.4,2.88,.76,4.3,1.21,.97,.3,1.89,.74,2.84,1.09,.65,.24,1.32,.42,2.03,.37,.53-.04,.96,.18,1.25,.61,.57,.87,1.12,1.74,1.41,2.78,.43,1.6-.74,3.43-2.38,3.57-.44,.04-.87,.03-1.31,.01-1.18-.04-2.34,.12-3.5,.33-.33,.06-.67,.02-1.01,.02-.86,0-1.71-.02-2.57,0-.75,.03-1.52,.24-2.25,.15-1.4-.18-2.82-.09-4.21-.46-.92-.25-1.88-.13-2.82,.03-.18,.03-.36,.11-.53,.09-.65-.09-1.28,.14-1.94,.04-.66-.1-1.34-.03-2.01-.03-.67,0-1.35,.07-2.02-.01-3.07-.38-6.16-.27-9.23-.12-3.48,.17-6.95,.15-10.42,.09-2.06-.04-4.13-.17-6.2-.11-.95,.03-1.92,.07-2.86,.32-.23,.06-.49,0-.8,0ZM22.62,36.66v-.59c-.4-.25-.77-.48-1.13-.71q-.43,.21-.45,.71c.28,.18,.57,.38,.84,.56h.76c.02,.18,.05,.37,.09,.7,.23-.25,.35-.39,.48-.53-.12-.13-.2-.22-.28-.3-.11,.06-.22,.11-.32,.16ZM-20.56,70.93c.23-.04,.42-.07,.61-.11,.03-.38-.08-.62-.42-.63-.15,0-.31,.13-.46,.2,.09,.18,.16,.31,.27,.53Zm53.6-21.6c.33-.17,.52-.36,.35-.71-.06-.11-.2-.18-.38-.34-.12,.15-.22,.26-.32,.38,.12,.23,.23,.43,.35,.66Zm-.71-21.76c.16,.44,.38,.53,.75,.39-.01-.22-.03-.41-.05-.75-.3,.15-.5,.26-.71,.36ZM7.28,38c.44,.49,.62,.57,.89,.31-.07-.16-.16-.36-.23-.52-.28,.09-.47,.15-.66,.21Zm-23.58,13.92c-.28,.14-.55,.28-.81,.41q.47,.35,1.02-.25c-.07-.05-.14-.11-.2-.16Zm27.6-11.25c.27-.25,.38-.34,.51-.46-.23-.21-.44-.39-.65-.58-.04,.02-.08,.05-.13,.07,.07,.26,.15,.53,.27,.96Zm14.81,8.49c.44-.16,.66-.34,.77-.81-.27,.08-.5,.08-.61,.19-.11,.11-.1,.34-.16,.62Zm-14.04,2.22c-.12-.23-.22-.42-.31-.6-.22,.13-.37,.22-.51,.3,.15,.35,.34,.48,.82,.3Zm3.53-12.21c.1-.33,.18-.53,.22-.73,0-.03-.12-.09-.2-.16-.16,.18-.31,.34-.47,.51,.11,.09,.2,.17,.46,.38Zm-9.82,4.51c.14,.18,.27,.34,.42,.54,.15-.21,.24-.32,.34-.47-.18-.14-.31-.24-.44-.34-.11,.1-.18,.16-.32,.27Zm28.4-16.34c-.3-.22-.43-.32-.57-.42-.25,.32-.14,.53,.15,.74,.1-.08,.21-.16,.41-.32Zm-2.9,2.21c.05,.06,.1,.12,.15,.18,.18-.16,.36-.31,.59-.5-.46-.16-.66,0-.73,.32Zm-4.8,23.27c.18-.11,.3-.18,.46-.28-.24-.17-.35-.25-.45-.32-.16,.1-.27,.17-.41,.25,.19,.17,.28,.24,.41,.35Zm6.28-21.1c-.07-.25-.12-.41-.19-.66-.19,.22-.3,.34-.48,.55,.26,.04,.41,.07,.67,.11ZM4.51,39.75c-.15-.16-.23-.24-.32-.34-.15,.16-.28,.31-.41,.45,.02,.04,.04,.07,.06,.11,.2-.07,.41-.13,.67-.22Zm3.97,3c-.21-.01-.43-.03-.7-.04,.22,.35,.42,.46,.7,.04Zm10.31-2.88c.06,.03,.12,.06,.17,.09,.11-.1,.23-.2,.37-.32-.17-.12-.28-.19-.47-.32-.03,.24-.05,.4-.07,.55Zm-28.29,15.22c0-.06,.02-.13,.03-.19-.16-.09-.32-.17-.56-.3,.02,.24,.04,.38,.06,.55,.2-.03,.34-.04,.48-.06Zm26.65-.05c.2,.29,.39,.39,.56,0h-.56Zm-37.19,4.67c.3-.22,.37-.42-.04-.56,.02,.23,.03,.39,.04,.56Zm45.76-6.86c.08-.28,.13-.43,.17-.59-.04-.02-.09-.05-.13-.07-.12,.1-.23,.19-.38,.31,.1,.1,.16,.16,.33,.35Zm16.28-24.06c-.29,.19-.37,.37,0,.58v-.58Zm1.33,1.41c.22,.07,.38,.12,.53,.18,.02-.04,.05-.08,.07-.12-.09-.12-.19-.25-.32-.42-.09,.11-.14,.18-.28,.37Zm-31.95,11.33c.24,.02,.4,.03,.7,.05-.25-.18-.37-.28-.51-.37-.06,.1-.09,.14-.2,.33Zm17.69-8.77s-.08-.07-.11-.1c-.13,.08-.27,.16-.43,.25,.09,.1,.15,.17,.25,.27,.12-.16,.21-.29,.3-.41Zm-.13,13.96c.02-.45-.17-.36-.5-.27,.24,.13,.37,.2,.5,.27Zm.85-18.74c.25,.14,.33,.21,.38,.2,.06-.01,.09-.11,.14-.17-.06-.05-.12-.12-.19-.13-.08,0-.16,.05-.33,.1ZM4.99,51.47l-.13,.15c.15,.07,.3,.14,.45,.21,.02-.03,.04-.07,.05-.1-.13-.09-.25-.18-.38-.26Zm9.95,3.09c-.12-.13-.19-.22-.28-.33-.09,.11-.16,.19-.27,.33h.55Zm-9.72,.54c.25,.14,.33,.21,.38,.2,.06-.01,.09-.11,.14-.17-.06-.05-.12-.12-.19-.13-.08,0-.16,.05-.33,.1Zm-.85-3.25c-.23,.04-.34,.03-.37,.07-.04,.05,0,.15,0,.38,.15-.18,.21-.25,.38-.45Zm31.68-2.32l.11,.11c.08-.08,.16-.16,.24-.23-.04-.04-.07-.08-.11-.11-.08,.08-.16,.16-.23,.24Zm-15.86-2.81c.23-.04,.34-.03,.37-.07,.04-.05,0-.15,0-.38-.15,.18-.21,.25-.38,.45Z" style="fill: #668080;"/>
        <path d="M55.3,17.5c.25-.67,.63-1.21,1.15-1.64,1.09-.91,1.63-2.13,1.94-3.47,.15-.64-.12-1.25-.24-1.86-.26-1.34-1.04-2.4-1.9-3.43,.17-.23,.34-.45,.54-.71-.14-.04-.24-.08-.37-.12-.18,.21-.35,.4-.54,.62-1.05-.87-2.25-1.3-3.51-1.6-.46-.11-.93-.23-1.41-.27-1.17-.09-2.33-.28-3.49-.42-1.43-.17-2.85-.13-4.28-.13-15.99-.02-31.99-.01-47.98,0-.79,0-1.55-.14-2.3-.37-.56-.17-.89-.58-1.1-1.11-.33-.81-.54-1.69-.5-2.53,.07-1.62,.97-2.79,2.46-3.47,.32-.15,.67-.24,1.03-.37,.08,.04,.19,.09,.29,.14,.06-.02,.12-.02,.17-.05,.97-.59,2.09-.72,3.14-1.01,1.41-.4,2.82-.79,4.13-1.45,1.11-.56,2.31-.8,3.49-1.12,.86-.23,1.75-.36,2.62-.58,.61-.15,1.2-.38,1.8-.53,.56-.14,1.06-.52,1.68-.43,.86-.58,1.88-.73,2.84-1.05,1.78-.61,3.56-1.21,5.33-1.85,.49-.18,1.08-.24,1.38-.79-.06-.13-.12-.26-.2-.43-.37-.03-.73-.02-1.13,.09-.99,.25-1.98,.51-3.03,.44-.26-.02-.53,.09-.8,.12-.33,.03-.7,.13-.99,.03-.54-.2-1.08-.13-1.62-.15-1.76-.07-3.52-.12-5.28-.19-.15,0-.3-.06-.44-.07-.5-.01-1.01-.03-1.51-.01-.26,0-.53,.07-.8,.1-.08-.22-.14-.38-.24-.65-.21,.22-.39,.4-.57,.59h-.58c.03-.23,.05-.42,.09-.72-.07-.08-.22-.23-.35-.36-.76,.37-1.44,.7-2.21,1.07-1.07,.07-2.25,.22-3.43,.21-1.36,0-2.72-.13-4.14-.21-.05-.21-.1-.43-.15-.68-.1,.03-.22,.02-.26,.08-.12,.17-.2,.35-.31,.56-.78-.23-1.45-.75-2.04-1.3-.81-.76-.77-1.81-.53-2.8,.34-1.39,1.23-2.31,2.64-2.68,.14-.04,.29-.1,.44-.1,1.01,0,2.04-.14,3.02,.03,1.28,.22,2.56,.22,3.82,.12,4.12-.32,8.24,.06,12.34-.2,3.17-.2,6.34-.08,9.5-.13,3.15-.05,6.3-.01,9.45,0,.29,0,.59,.07,.99,.12,.02-.03,.1-.14,.21-.28h5.32c.12,.52,.01,1.17,.76,1.49-.06-.53-.1-.98-.16-1.52,.3,0,.52-.05,.71,0,.77,.23,1.57,.1,2.35,.19,.67,.08,1.34,.29,1.99,.5,.83,.28,1.43,.83,1.77,1.75-.13,.04-.26,.07-.37,.13-.12,.07-.23,.16-.47,.33,.39,.12,.66,.2,.93,.28,.46,1.96-.88,3.61-2.56,4.33-2.54,1.08-5.23,1.64-7.86,2.41-1.06,.31-2.06,.81-3.1,1.17-1.75,.6-3.51,1.17-5.27,1.73-1.25,.4-2.51,.76-3.77,1.12-1.49,.43-2.99,.83-4.48,1.26-.83,.24-1.66,.47-2.49,.74-.51,.16-.54,.24-.62,.91h.99c9.08,0,18.16-.03,27.25,.03,1.39,0,2.79,.1,4.18,.17,1.17,.06,2.34,.18,3.5,.36,2.4,.38,4.77,.9,6.88,2.17,.87,.52,1.77,1.07,2.46,1.79,1.23,1.28,2.12,2.79,2.72,4.49,.78,2.22,.91,4.49,.75,6.78-.06,.96-.37,1.94-.73,2.85-.64,1.59-1.44,3.11-2.7,4.32-.37,.36-.73,.74-1.1,1.1-.97,.93-2.59,.95-3.52,0-.52-.53-.97-1.15-1.38-1.77-.18-.28-.21-.68-.25-1.03-.04-.36,0-.73,0-1.06ZM10.32-14.59c.04-.6-.21-.83-.65-.92-.2-.04-.41-.09-.59-.19-.43-.23-.86-.23-1.39-.08-.03,.24-.07,.48-.09,.64,.82,.94,1.77,.45,2.72,.56Zm9.91,6.82c.23,.25,.46,.49,.63,.67,.74,.02,.68-.54,.93-.95-.19-.21-.37-.4-.53-.59-.48,.21-.94,.22-1.02,.86Zm-5.33-9.41c-.52,.37-1.23,.39-1.25,1.17,.15,.09,.3,.17,.47,.27,.34-.27,.69-.54,1.06-.83-.1-.23-.17-.38-.28-.61ZM-6.62-1.66c.38,.19,.68,.35,1.05,.54,.15-.34,.26-.6,.37-.84-.65-.52-.75-.5-1.41,.29ZM59.86,10.72c-.24,.08-.37,.04-.58-.12-.07-.05-.19-.03-.28-.04-.03,.05-.06,.09-.09,.14,.3,.31,.61,.62,.87,.89,.42,.03,.76,.05,.82-.38-.25-.16-.48-.32-.73-.48ZM23.04-19.14c-.05,.38-.09,.68,.38,.9,.15-.06,.43-.1,.6-.26,.2-.19,.09-.44-.17-.65h-.8ZM19.03,3.22c-.08,.3-.16,.6,.22,.84,.2-.13,.4-.27,.63-.42-.27-.25-.42-.55-.85-.42Zm6.51-10.45c.14,.45,.34,.59,.73,.44v-.6c-.26,.06-.48,.11-.73,.16Zm-.3-11.3c.25,.33,.51,.39,.78,.1,.06-.06,.07-.15,.11-.25-.16-.09-.31-.18-.48-.27-.14,.14-.27,.29-.41,.43Zm-1.44,10.34c.34-.05,.5-.2,.48-.48-.02-.26-.18-.41-.48-.39v.87Zm13.44-9.75c-.25,.1-.45,.18-.66,.26,.13,.22,.22,.37,.32,.55,.31-.13,.47-.31,.34-.8ZM12.34,.66c.16,.37,.3,.69,.5,1.13q.09-.96-.5-1.13Zm29.33-12.64c.17-.15,.31-.28,.48-.44-.18-.16-.31-.27-.45-.39-.13,.12-.22,.2-.31,.28,.09,.17,.17,.32,.28,.54Zm16.27,28.7v.76c.19-.02,.3-.03,.4-.04,.14-.39,0-.59-.4-.71ZM15.74-3.98v.71s.09,.03,.14,.04c.12-.2,.24-.41,.39-.67-.21-.03-.34-.06-.53-.09ZM-1.44,2.62c.13-.23,.24-.44,.38-.69h-.46c-.07,.18-.13,.33-.19,.47,.1,.08,.17,.13,.28,.22ZM63.66,14.91c.03-.07,.07-.14,.1-.2-.13-.13-.27-.25-.42-.4-.13,.14-.22,.23-.4,.42,.31,.08,.51,.13,.71,.18ZM33.02,2.83c.09-.38-.08-.58-.36-.79-.19,.44-.05,.65,.36,.79Zm-11.59-13.49v.75c.22-.19,.34-.28,.48-.41-.17-.12-.28-.2-.48-.34ZM10.32-1.8c-.06,.06-.12,.11-.18,.17,.15,.13,.3,.26,.48,.41,.1-.12,.17-.21,.29-.35-.23-.09-.41-.16-.59-.24Zm35.24-15.83c-.11-.1-.22-.2-.35-.32-.14,.12-.24,.22-.36,.33,.11,.1,.2,.17,.27,.23,.16-.09,.29-.16,.44-.24ZM35.34,3.1q-.43-.24-.52,.29c.18-.1,.31-.17,.52-.29Zm6.63-4.19c-.09,.23-.16,.38-.22,.53,.04,.03,.08,.06,.11,.08,.13-.09,.26-.17,.44-.29-.11-.11-.19-.19-.33-.33Zm2.22,.03c.07,0,.14,0,.2,0,.07-.19,.2-.39-.2-.54v.55ZM16.31-13.79c-.02,.28-.03,.43-.05,.58,.04,0,.08,.02,.12,.03,.07-.13,.14-.26,.2-.37-.08-.07-.1-.09-.27-.24ZM38.61,1.1c-.05-.13-.07-.21-.12-.35-.15,.11-.28,.2-.53,.38,.3-.02,.46-.03,.65-.04ZM-2.4,.97c-.12,.13-.24,.22-.22,.25,.04,.1,.14,.19,.23,.3,.11-.13,.18-.2,.24-.28-.1-.11-.16-.17-.25-.27Zm29.33,3.45c.11-.15,.19-.27,.28-.39-.03-.05-.07-.09-.1-.14-.15,.05-.3,.11-.48,.17,.08,.1,.1,.12,.3,.35ZM2.91-17.27c-.02,.28-.03,.43-.05,.58,.04,0,.08,.02,.12,.03,.07-.13,.14-.26,.2-.37-.08-.07-.1-.09-.27-.24ZM23.01,1.49c-.12-.13-.19-.22-.28-.33-.09,.11-.16,.19-.27,.33h.55ZM52.61-.16s.08-.08,.12-.12c-.09-.07-.17-.13-.26-.2-.02,.03-.05,.05-.07,.08,.07,.08,.14,.16,.21,.23Zm-2.02-.18s.08-.08,.12-.12c-.09-.07-.17-.13-.26-.2-.02,.03-.05,.05-.07,.08,.07,.08,.14,.16,.21,.23Z" style="fill: #668080;"/>
        <path d="M-10.24,0c-.23-.06-.46-.11-.69-.18-1.05-.35-2.06-.79-3.23-.4-.44,.15-.97,.01-1.46,.03-1.09,.05-2.17,.12-3.26,.19-.16-.19-.31-.37-.52-.63-.12,.22-.21,.37-.33,.6-.91-.05-1.87,.19-2.82-.15-.16-.06-.36,0-.55-.02-.91-.04-1.82,.12-2.72-.17-.25-.08-.55-.04-.82,0-.68,.1-1.35,.29-2.03,.34-1.61,.11-2.95-.48-3.95-1.77-.5-.65-.64-1.43-.7-2.18-.05-.56,.17-1.2,.45-1.7,.27-.48,.76-.81,1.37-.96,1.34-.33,2.64-.76,4.06-.73,.72,.02,1.38,.2,2.01,.43,.48,.18,.86,.12,1.3-.05,.52-.21,1.07-.37,1.58-.54,.19,.1,.35,.18,.43,.22,.06,.2,.1,.34,.19,.64,.13-.3,.2-.46,.3-.67,.67,.03,1.4-.01,2.17,.15,.88,.18,1.82,.06,2.7,.24,1.43,.29,2.85,.06,4.36,.19,.13,.09,.32,.23,.55,.38,.22-.13,.42-.25,.68-.42h.93c8.41,0,16.82,.01,25.23-.01,.92,0,1.85-.2,2.77-.33,1.86-.27,4.04,.65,4.47,2.82,.26,1.29,.19,1.95-.5,3.2-.16-.06-.32-.11-.51-.18-.08,.09-.25,.22-.23,.26,.24,.53-.08,.56-.48,.67-.51,.15-1.01,.16-1.52,.16-2.97,0-5.93-.02-8.9,0-1.89,.02-3.78,.14-5.67,.16-.72,.01-1.44-.14-2.16-.16C.9-.58-.19,.05-.96,1.13c-.31,.43-.41,1.06-.46,1.61-.07,.85-.05,1.71,0,2.56,.04,.76,.33,1.4,1.08,1.74,1.08,.47,2.19,.83,3.38,.83,4.31,.01,8.63-.12,12.93,.05,3.08,.12,6.16,0,9.23,.18,1.33,.08,2.7,.1,4.01,.49,.43,.13,.9,.11,1.33,.22,.29,.08,.56,.27,.82,.46,.28,.01,.54-.1,.91,.01,1.43,.44,2.65,1.21,3.85,2.07,1.49,1.07,2.55,2.48,3.35,4.07,.72,1.44,1.29,2.96,1.31,4.62,0,.29,.12,.58,.19,.94h-.72c.08,.23,.13,.38,.19,.55,.15,.05,.32,.11,.52,.18-.09,.76-.16,1.5-.26,2.24-.19,1.31-.68,2.54-1.25,3.72-.49,1.01-1.19,1.93-1.85,2.86-.17,.25-.51,.38-.94,.69-.16,.48-.78,.75-1.41,1.02-.69-.04-1.42,.14-2.09-.33-1.12-.78-1.83-1.76-1.94-3.17-.09-1.07,.33-1.87,1.05-2.57,.98-.95,1.56-2.14,1.86-3.43,.17-.76,.07-1.57-.15-2.34-.09-.3-.3-.59,0-.8-.61-.65-1.15-1.2-1.67-1.77-.86-.93-1.93-1.52-3.12-1.9-.94-.3-1.87-.61-2.82-.86-.52-.14-1.07-.18-1.6-.23-.93-.08-1.87-.15-2.8-.18-.95-.03-1.9,0-2.84,0h-3.75c-.06-.19-.1-.33-.17-.58-.11,.22-.18,.36-.27,.53-1.67,.07-3.43,.2-5.19,.22-2.97,.04-5.93,.03-8.9,0-1.94-.02-3.89-.05-5.83-.21-.84-.07-1.69-.11-2.53-.16-.83-.05-1.66-.19-2.6-.3-.38,.36-.97,.43-1.56,.49-2.55,.26-5.11,.23-7.67,.16-1.3-.03-2.6-.13-3.9-.18-1.23-.05-2.44-.34-3.67-.4-.66-.03-1.33,.22-2,.32-.9,.14-1.8,.25-2.68-.11-.56-.23-.96-.64-1.18-1.19-.47-1.18-.55-2.39-.2-3.62,.23-.83,.81-1.34,1.61-1.54,.58-.14,1.19-.2,1.79-.2,3.12-.02,6.24-.03,9.36,0,1.49,.01,2.97,.11,4.46,.18,.33,.02,.65,.16,.97,.17,.57,.01,1.13,.03,1.71-.15,.54-.16,1.13-.14,1.7-.21,.15-.02,.32-.02,.43-.1,.97-.68,1.91-1.36,2.28-2.6,.37-1.21,.41-2.36-.26-3.46-.29-.47-.55-.98-1.09-1.27-.12-.06-.15-.31-.22-.47,.11-.01,.21-.03,.42-.05-.16-.06-.23-.11-.25-.09-.06,.04-.1,.11-.15,.17Zm-.57,9.33s.1-.04,.05-.02c.03-.06,0,0-.02,.05-.05,.02-.1,.04-.04,.02-.02,.05,0,0,.02-.04Zm42.41,3.12c.32,.17,.62,.34,.96,.53,.22,.34,.47,.71,.71,1.07,.14-.04,.24-.08,.37-.12,.18,.12,.37,.25,.63,.43,.14-.29,.25-.52,.36-.76,.13-.04,.27-.07,.37-.1,.09-.28,.16-.5,.23-.71-.25-.59-.24-1.29-.67-1.8-.46,.15-.88,.28-1.28,.44-.4,.16-.83,.32-.87,.84-.3-.08-.56-.32-.82,.18Zm3.35,19.14c.14-.34,.25-.59,.37-.87-.27-.13-.47-.23-.69-.33-.11,.22-.21,.4-.32,.62,.19,.18,.38,.35,.63,.58ZM.31,9.38q-.37,.51,0,1.02,.36-.51,0-1.02ZM-30.21-2.21c-.37-.33-.57-.08-.77,.12-.05,.05-.09,.13-.14,.21,.13,.09,.24,.17,.39,.28,.19-.23,.36-.42,.52-.62Zm1.89-4.78c-.21-.16-.34-.26-.5-.38-.14,.18-.24,.31-.36,.46,.18,.14,.31,.24,.45,.35,.14-.14,.23-.25,.4-.43Zm9.89,3.11c-.14,.18-.27,.34-.4,.52,.11,.09,.22,.18,.36,.3,.15-.16,.26-.29,.39-.42-.12-.14-.2-.23-.34-.4ZM11.8-6.12c.14,.09,.27,.17,.43,.27,.11-.31,.2-.56-.11-.8-.12,.2-.21,.34-.32,.52Zm3.71-.29c-.06,0-.11,.01-.17,.02v.81c.22-.18,.33-.27,.44-.36-.1-.17-.19-.32-.27-.47ZM-28.57,10.76c-.04-.22-.07-.35-.12-.63-.21,.24-.34,.38-.56,.63h.68Zm19.03-1.92c-.06-.02-.12-.05-.18-.07-.12,.14-.24,.28-.43,.5,.27,.02,.43,.04,.63,.06-.01-.21-.02-.35-.02-.48Zm.12-10.5c.11-.12,.2-.22,.32-.36-.12-.13-.21-.24-.32-.36-.11,.12-.2,.22-.32,.36,.12,.13,.21,.24,.32,.36Zm-12.28,12.35c-.22,.23-.36,.37-.59,.61h.67c-.03-.19-.04-.33-.08-.61ZM.21-4.9c-.03-.33-.04-.55-.07-.89-.22,.19-.33,.29-.47,.4,.18,.17,.31,.29,.54,.49Zm-11.89,1.4c0,.37-.15,.69,.17,.96,.34-.4,0-.62-.17-.96ZM24.29,10.37c-.22-.19-.36-.31-.6-.51,.03,.34,.05,.54,.08,.81,.19-.11,.31-.18,.53-.31Zm5.23,2.65c-.3,.37-.31,.37-.26,.6,0,.05,.13,.07,.26,.13v-.73Zm-62.24-2.97c.29-.03,.46-.05,.74-.08-.17-.2-.26-.31-.38-.45-.11,.16-.2,.29-.36,.53Zm9.4-1.7c-.21,.14-.34,.23-.52,.35,.18,.11,.32,.2,.52,.32v-.67Zm63.49,11.91c-.21,.14-.34,.23-.52,.35,.18,.11,.32,.2,.52,.32v-.67Zm.16,2.36v-.75c-.22,.19-.34,.28-.48,.41,.17,.12,.28,.2,.48,.34ZM.48-6.61c-.12,.16-.21,.28-.28,.37,.1,.17,.16,.29,.24,.42,.16-.17,.22-.24,.28-.3-.07-.14-.13-.26-.24-.48ZM-6.6,.82c.18,.12,.31,.2,.52,.34V.49c-.21,.13-.35,.22-.52,.33Zm-6.03,10.69l-.15-.19c-.19,.08-.38,.17-.62,.28,.16,.14,.24,.21,.26,.22,.2-.12,.36-.22,.51-.31Zm-19.44-.82c-.19-.09-.33-.16-.48-.23l-.09,.11c.08,.13,.16,.27,.25,.42,.11-.1,.19-.18,.32-.3ZM-9.42,.34c.3-.22,.37-.42-.04-.56,.02,.23,.03,.39,.04,.56ZM7.86,10.09c.09-.19,.16-.33,.23-.48-.04-.03-.07-.06-.11-.09-.13,.08-.26,.16-.42,.25,.1,.11,.18,.19,.3,.32ZM-13.03-3.46c.13-.09,.25-.18,.4-.29-.12-.1-.2-.18-.31-.28m17.04,.31c-.34-.23-.41,0-.57,.15,.11,.11,.18,.16,.27,.25,.1-.14,.19-.26,.3-.4ZM39.51,21.3c-.1-.13-.19-.25-.29-.38-.03,.01-.06,.03-.09,.04,.03,.16,.07,.32,.11,.51,.13-.08,.17-.11,.27-.17ZM-28.08-1.42c-.08-.01-.17-.02-.25-.03l-.03,.45s.09,.01,.13,.02c.05-.15,.1-.3,.14-.44ZM13.04,8.75c.1,.13,.19,.25,.29,.38,.03-.01,.06-.02,.09-.04-.03-.16-.07-.32-.11-.51-.13,.08-.17,.11-.27,.17Zm-2.47,2.04c.07,0,.15,0,.22,0,0-.15,.02-.3,.03-.45-.17,.02-.24,.09-.26,.17-.02,.09,0,.19,0,.29Zm-4.66,.73c.21-.18,.36-.31,.61-.52-.44,.01-.57,.16-.61,.52ZM.57,13.08s-.07-.02-.11-.03c-.05,.15-.1,.31-.15,.46,.06,.01,.11,.03,.17,.04,.03-.16,.06-.32,.1-.48Zm.52-1.36c.14-.25,.21-.33,.2-.38-.01-.06-.11-.09-.17-.14-.05,.06-.12,.12-.13,.19,0,.08,.05,.16,.1,.33ZM35.86,29.11c-.17-.16-.25-.24-.35-.33-.08,.11-.14,.2-.24,.33h.6ZM22.97,12.33s.08,.05,.12,.08c.08-.13,.17-.25,.25-.38l-.12-.08c-.08,.13-.17,.25-.25,.38ZM5.67-2.54c.17,.16,.25,.24,.35,.33,.08-.11,.14-.2,.24-.33h-.6ZM-11.16,13.89c-.12-.13-.19-.22-.28-.33-.09,.11-.16,.19-.27,.33h.55Zm24.26,.37s.08-.04,.11-.07c-.01-.08-.01-.16-.05-.23-.05-.07-.13-.13-.2-.19l-.11,.09c.08,.13,.16,.26,.24,.39Zm-17.58,.26c.04-.21,.09-.3,.07-.38,0-.07-.08-.13-.12-.19-.06,.04-.16,.08-.18,.14-.01,.05,.06,.13,.23,.44ZM3.51-5.56s-.07-.07-.11-.11c-.08,.08-.16,.16-.24,.23,.04,.04,.07,.08,.11,.11,.08-.08,.16-.16,.23-.24ZM-11.26,10.04s.04-.04,.06-.06c-.02-.02-.04-.06-.06-.06-.02,0-.04,.03-.06,.05,.02,.02,.04,.04,.06,.06Z" style="fill: #668080;"/>
        <path d="M20.2,16.39c.28,.49,.6,.7,1.09,.79,1.11,.22,2.19,.59,3.29,.84,.88,.19,1.77,.28,2.66,.42,1.45,.23,2.89,.52,4.34,.7,2.32,.28,4.55,.98,6.82,1.48,.53,.12,1.07,.14,1.61,.2,.6,.07,1.2,.17,1.79,.18,1,.01,1.97,.23,2.95,.35,.87,.11,1.71,.31,2.53,.58,1.63,.55,2.72,1.59,2.89,3.4,.02,.17,.11,.34,.17,.5-.06,.24-.18,.47-.17,.7,.04,.68-.28,1.21-.62,1.74-.23,.35-.48,.7-.79,.98-.28,.25-.61,.54-1.05,.24-.12,.15-.24,.31-.34,.44-2.05,.2-4.02,.55-5.97,1.03-1.45,.36-2.9,.69-4.35,1.03-.17,.04-.36,0-.5,0-.12-.15-.21-.26-.33-.42-.17,.19-.3,.34-.56,.63-.63,.1-1.42,.22-2.22,.34-.89,.14-1.77,.27-2.66,.42-.91,.16-1.82,.33-2.74,.49-.86,.15-1.72,.26-2.57,.42-.55,.1-.54,.13-1.06-.04-.06,.09-.12,.18-.17,.25-2.63,.52-5.23,1.05-7.84,1.56-2.58,.51-5.16,1-7.8,1.51-.17,.15-.37,.33-.6,.53-.28-.02-.57-.05-.84-.07-.26,.13-.53,.27-.67,.34-.53-.04-.93-.15-1.29-.07-1.52,.32-3.02,.71-4.53,1.05-2.04,.45-4.11,.79-6.12,1.33-2.19,.59-4.36,1.27-6.24,2.64-1.61,1.17-2.87,2.58-3.24,4.6-.09,.47-.11,.98-.02,1.45,.13,.75,.38,1.49,.58,2.23-.09,.04-.25,.09-.61,.23,.43,.12,.66,.19,.9,.26-.02,.02-.03,.04-.05,.06,.6,.45,1.22,.88,1.8,1.35,.25,.2,.47,.48,.61,.77,.98,2.05,.25,4.1-1.65,5.17-.92,.52-1.96,.37-2.84-.2-.58-.37-1.09-.87-1.57-1.36-1.93-1.95-3.09-4.31-3.76-6.94-.09-.37-.01-.79-.01-1.23,.15-.03,.29-.06,.43-.08,.14-.02,.29-.03,.47-.06-.02-.19-.03-.33-.06-.55-.26,.16-.46,.28-.69,.43-.08-.06-.25-.14-.25-.21,.04-.77-.48-1.48-.16-2.3,.2-.51,.12-1.13,.25-1.68,.32-1.37,.82-2.68,1.63-3.86,1.11-1.61,2.51-2.91,4.2-3.88,.28,.15,.53,.29,.95,.51-.03-.45-.05-.72-.07-1.07,.12-.07,.29-.19,.47-.28,.53-.25,1.07-.48,1.61-.73,.51-.24,1-.52,1.52-.74,2.23-.94,4.53-1.66,6.92-2.11,1.9-.36,3.77-.91,5.69-1.21,.92-.15,1.84-.29,2.71-.61,.95-.36,1.71-.95,2.14-1.93,.44-.99,.78-2.04,.81-3.09,.03-.96-.23-1.97-.89-2.76-1.05-1.26-2.46-1.76-4.04-1.91-1.11-.1-2.24-.12-3.31-.39-1.28-.33-2.49-.91-3.18-2.17-.47-.85-.85-1.71-.48-2.71,.09-.25,.05-.54,.14-.79,.38-1.06,1.29-1.8,2.64-1.81,1.82-.01,3.59,.29,5.36,.67,.58,.12,1.17,.24,1.87,.38,.08-.06,.27-.19,.45-.31,.37,.09,.72,.17,1.1,.26,.1,.15,.22,.31,.37,.52,.61-.44,1.12-.08,1.69,.12,.83,.31,1.7,.55,2.57,.73,1.17,.24,2.36,.39,3.55,.55,.36,.05,.73,.02,1.1,.01,.94-.02,1.86,.13,2.77,.33,.19,.04,.41-.02,.62-.05,.27-.03,.53-.08,.86-.13Zm-2.84,12.31c.96-.66,2.12-.5,3.2-.72,1-.2,2.03-.22,3.03-.41,1.34-.25,2.68-.57,4.01-.91,.8-.2,1.57-.5,2.36-.75,0-.04-.02-.07-.03-.11h-.92c-.14,.1-.31,.22-.52,.37-.17-.2-.31-.38-.42-.51-.64-.09-1.23-.22-1.82-.25-.78-.05-1.53-.23-2.28-.45-1.46-.44-2.94-.77-4.43-1.03-.82-.14-1.63-.34-2.49-.52-.3,.13-.65,.28-1,.44-.79,.35-1.15,1.12-1.64,1.75-.27,.35-.24,.73,0,1.09,.35,.52,.7,1.04,1.09,1.53,.25,.32,.61,.48,1.03,.48,.27,0,.55,0,.84,0ZM5.45,15.94c-.09,.21-.16,.37-.19,.43,.3,.37,.55,.7,.81,1,.16,.18,.34,.34,.41,.41,.61-.13,1.08-.23,1.6-.35,.04-.05,.13-.16,.2-.24,.27,.05,.52,.1,.73,.14,.27-.47,.5-.85,.76-1.3v-.5c-.99-.16-1.95-.32-2.82-.47-.55-.16-1.01-.3-1.48-.43-.15,.44,.07,.59,.38,.73,.08,.04,.08,.26,.12,.42-.19,.05-.32,.09-.51,.14Zm25.3,9.58c.14,.13,.29,.27,.43,.4,.43-.31,.28-.66,.16-.99,.17-.36,.33-.71,.48-1.03-.12-.19-.21-.34-.3-.49-.31,.08-.62,.16-.8,.21-.47,.69,.24,1.25,.03,1.9ZM-19.47,50.3c-.03-.09-.11-.31-.18-.51-.38-.04-.71-.05-.82,.49,.2,.08,.41,.15,.61,.25,.06,.03,.08,.14,.13,.21-.25,.12-.48,.23-.74,.35,.26,.29,.42,.62,.88,.44,.04-.36,.07-.74,.12-1.23ZM8.48,31.97c-.35,.76-.29,.87,.64,1.3,.48-.24,.28-.65,.3-1.07-.35-.09-.65-.16-.94-.23Zm3.33-13.56c.26,.29,.47,.54,.72,.82,.2-.09,.38-.17,.55-.25-.1-.27-.17-.48-.24-.67-.29-.05-.55-.08-.81-.13-.06,.06-.12,.13-.21,.24ZM-14.92,52.86c-.61,.37-.69,.76-.51,1.28h.57c-.02-.41-.04-.78-.06-1.28Zm4.03-11.95c.41-.48,.34-.81,.29-1.14-.36-.14-.64-.02-.65,.27-.01,.24,.2,.5,.36,.87Zm5.48-2.32c.38,.25,.6,.39,.84,.55,.11-.14,.18-.23,.27-.35-.13-.2-.24-.39-.39-.62-.22,.13-.39,.22-.72,.42ZM3.37,18.11c.36,.16,.54,.32,.7,.3,.16-.02,.3-.21,.47-.35-.21-.22-.35-.38-.5-.54-.2,.17-.36,.31-.68,.59Zm17.9,15.89c.18,0,.33,0,.47,0,.05,0,.1-.06,.14-.09-.3-.48-.66-.71-.88-.49,.08,.18,.17,.38,.26,.59Zm13.59-12.2c-.25-.26-.4-.43-.55-.59-.18,.11-.33,.2-.49,.3,.21,.47,.53,.47,1.04,.29Zm7.76,.91c-.2-.08-.33-.13-.49-.2-.08,.13-.16,.25-.22,.34,.19,.32,.4,.43,.72,.27v-.41Zm-34.52-3.04c.15,.17,.28,.3,.44,.48,.16-.18,.27-.31,.39-.45-.12-.13-.2-.22-.28-.31-.17,.09-.32,.17-.54,.28Zm18.14,2.62c.08-.21,.14-.36,.22-.57-.29,.04-.48,.07-.69,.1,.02,.17,.03,.28,.04,.43,.14,.02,.26,.03,.43,.05ZM-1.76,15.48c.29-.1,.49-.17,.76-.27-.24-.19-.42-.32-.67-.51-.03,.29-.05,.49-.09,.78Zm23.51,6.6c-.21-.32-.41-.44-.73-.23,.01,.13,.03,.27,.05,.5,.27-.11,.47-.18,.68-.27Zm0,9.16c-.21-.32-.41-.44-.73-.23,.01,.13,.03,.27,.05,.5,.27-.11,.47-.18,.68-.27Zm-19.88,1.17c.02-.28,.03-.5,.05-.78-.28,.17-.49,.29-.74,.45,.26,.13,.44,.21,.7,.33Zm-19.79,20.03c-.18-.27-.39-.38-.73-.16,.12,.15,.23,.29,.37,.47,.15-.13,.26-.23,.36-.32ZM44.33,26.76c.23,.3,.43,.4,.85,.03-.15-.14-.29-.26-.43-.4-.21,.18-.3,.26-.42,.36Zm-28.18,7.11c.22,.16,.36,.26,.49,.35,.25-.33,.13-.53-.14-.73-.09,.1-.19,.2-.35,.37Zm-16.67,.67c-.12,.13-.19,.22-.27,.3,.15,.08,.28,.15,.43,.23,.13-.08,.26-.16,.41-.25-.19-.1-.34-.18-.56-.29Zm-3.22-.18c-.06-.06-.11-.12-.17-.18-.13,.15-.26,.3-.41,.48,.12,.1,.21,.17,.35,.29,.09-.23,.16-.41,.24-.59Zm-11.76,17.05c-.25,.15-.42,.25-.75,.45,.36,.06,.51,.08,.7,.11,.02-.18,.02-.3,.05-.56ZM-7.41,34.22c.23-.06,.37-.09,.68-.17-.31-.18-.47-.26-.68-.38v.55Zm.96,4.74c-.12,.16-.2,.28-.29,.4,.11,.12,.19,.21,.29,.32,.09-.16,.16-.3,.27-.5-.06-.05-.13-.1-.28-.21ZM40.07,21.9c-.05,.05-.11,.09-.16,.14,.08,.14,.17,.27,.28,.45,.11-.14,.18-.22,.26-.32-.15-.1-.26-.18-.37-.26Zm-2.86,9.61c-.23-.09-.38-.16-.53-.22-.03,.04-.06,.08-.08,.11,.09,.13,.17,.26,.29,.44,.11-.11,.19-.19,.33-.33Zm-30.56,5.82c-.03-.08-.05-.16-.08-.24-.19,.08-.38,.16-.57,.24,.02,.06,.05,.12,.07,.18,.19-.06,.39-.12,.58-.18Zm25.53-10.32c-.02-.12-.03-.18-.05-.3-.16,.03-.32,.06-.48,.1,0,.05,0,.11,.01,.16,.17,.02,.33,.03,.51,.05ZM-7.87,39.84c-.05,.13-.08,.21-.13,.34,.19,.02,.34,.03,.66,.06-.25-.19-.38-.28-.52-.4ZM1.19,33.75c-.13-.12-.22-.24-.25-.22-.1,.04-.19,.14-.3,.23,.13,.11,.2,.18,.28,.24,.11-.1,.17-.16,.27-.25Zm36.86-4.03c.1,.1,.18,.18,.3,.29,.1-.1,.18-.19,.29-.3-.11-.1-.19-.17-.31-.28-.1,.1-.17,.19-.28,.3ZM-19.94,49.33s-.02-.06-.04-.09c-.16,.03-.32,.06-.51,.1,.07,.12,.1,.17,.16,.27,.13-.09,.26-.19,.38-.28ZM30.23,33.1c.06-.18,.11-.26,.1-.34,0-.07-.08-.13-.12-.19-.06,.04-.16,.08-.18,.14-.01,.05,.06,.13,.2,.39Zm-6.33-9.13c.09-.08,.18-.13,.19-.18,0-.06-.08-.13-.12-.19-.06,.04-.16,.08-.18,.14-.01,.05,.06,.13,.11,.24Zm-13.23-1.86c-.06,.18-.11,.26-.1,.34,0,.07,.08,.13,.12,.19,.06-.04,.16-.08,.18-.14,.01-.05-.06-.13-.2-.39Zm29.5,2.42s-.05,.06-.08,.09c.08,.07,.15,.14,.23,.22,.03-.03,.06-.06,.09-.09-.08-.07-.16-.14-.23-.21ZM-19.17,50.57s.07,.07,.11,.11l.24-.23s-.07-.08-.11-.11c-.08,.08-.16,.16-.23,.24ZM19.86,17.1v-.07h-.28v.07h.28ZM7.73,37.07s0-.06-.01-.09c-.08,.01-.16,.02-.24,.03v.09c.09-.01,.17-.02,.25-.03Zm3.89-12.31h-.13s.04,.06,.06,.06c.02,0,.04-.03,.07-.06Z" style="fill: #668080;"/>
        <path d="M42.48,7.69c.46-.02,.86,.32,1.22,.66,1.47,1.37,2.45,2.99,2.81,5.01,.25,1.37,.16,2.7-.05,4.04-.03,.17-.3,.29-.5,.48,.06,.04,.17,.12,.33,.23-.66,2.22-1.75,4.19-3.54,5.71-1.3,1.1-2.8,1.83-4.45,2.23-1.22,.29-2.46,.47-3.72,.6-1.13,.12-2.24,.12-3.36,.13-6.27,.02-12.54-.04-18.81,.04-1.82,.02-3.65,.24-5.46,.12-1.35-.09-2.71-.04-4.05-.32-.46-.1-.95-.1-1.43-.16-1.52-.22-3.02-.55-4.4-1.19-1.59-.73-3-1.74-4.07-3.2-.84-1.15-1.51-2.36-1.94-3.72-.45-1.39-.43-2.77-.19-4.19,.34-2,1.24-3.71,2.46-5.31,.91-1.21,2.05-2.11,3.31-2.89,1.51-.93,3.17-1.32,4.91-1.55,2.08-.28,4.16-.35,6.25-.34,4.01,.01,8.01-.02,12.02,.02,.92,0,1.84,.22,2.77,.33,.27,.03,.55,.02,.82,.02,4.13,0,8.26,.02,12.39,0,1.5,0,2.83,.47,4.09,1.21,.69,.41,1.35,.89,2,1.37,.2,.14,.33,.37,.6,.69ZM15.47,20.02c1.31-.07,2.61-.14,3.91-.2,2.28-.1,4.56,.12,6.84-.15,1.06-.13,2.18-.2,3.26,.13,.42,.13,.89,.19,1.33,.19,1.51,.02,3.03,.11,4.5-.35,1.26-.39,2.57-.7,3.15-2.11,.03-.06,.16-.08,.22-.14,.06-.06,.07-.16,.13-.29-.12-.11-.24-.23-.31-.29-.14-.7-.25-1.35-.4-1.98-.33-1.37-1.27-2.35-2.32-3.15-.72-.55-1.61-.93-2.61-.84-.81,.08-1.62,0-2.44,.15-.78,.14-1.62-.03-2.43-.11-1.5-.15-3.03-.01-4.54-.2-.8-.1-1.62,.03-2.44,.13-1.41,.18-2.84,.18-4.27,.21-1.34,.03-2.69,0-4.03,0-.75,0-1.51,.06-2.22-.31-.17-.09-.42-.06-.63-.05-1.06,.05-2.11,.16-3.17,.17-1.12,0-2.23,.11-3.31,.39-2.31,.61-3.98,1.97-4.78,4.3-.25,.73-.07,1.29,.4,1.81,.97,1.07,2.22,1.75,3.53,2.29,.65,.27,1.34,.51,2.1,.35,.76-.16,1.54-.31,2.31-.31,1.45,0,2.91,.1,4.36,.17,.03,0,.06,0,.09,0,.89,.34,1.81,.11,2.67,.19,.21-.15,.37-.27,.55-.39,.17,.13,.31,.23,.53,.4Zm4.43,1.05c.42,.26,.81,.51,1.19,.74,.1-.11,.16-.17,.26-.28-.44-.34-.88-.67-1.39-1.06-.03,.27-.04,.43-.06,.6Zm-12.52,1.92q-.64,.06-.61,.68c.43,.02,.68-.13,.61-.68Zm23.63-2.03c-.18,.11-.34,.2-.55,.33,.23,.22,.39,.37,.54,.52,.33-.28,.35-.52,0-.85ZM.91,10.88c-.34-.08-.55,.03-.7,.46,.07,.06,.18,.15,.27,.24,.26-.2,.64-.23,.42-.7Zm13.08,10.31c-.33-.39-.59-.34-.87,.02,.31,.33,.57,.37,.87-.02Zm25.66,2.71c.31-.26,.28-.5,.1-.84-.17,.16-.31,.29-.51,.48,.16,.14,.27,.23,.41,.36Zm-1.52-13.99c-.36,.13-.28,.34-.16,.56,.04,.06,.12,.1,.21,.16,.1-.12,.18-.23,.33-.41-.15-.12-.26-.21-.38-.31ZM.27,10.72q.37-.37,.05-.95c-.02,.4-.04,.62-.05,.95Zm45.59,3.99c-.07,0-.14,.01-.21,.02-.05,.19-.18,.4,.25,.53-.02-.22-.03-.38-.04-.55Zm-1.42-3.63c.34,.23,.41,0,.57-.15-.11-.11-.18-.16-.27-.25-.1,.14-.19,.26-.3,.4Zm-15.91-1.64c-.19-.09-.33-.16-.48-.23-.03,.04-.06,.07-.09,.11,.08,.13,.16,.26,.25,.42,.11-.1,.19-.18,.32-.3Zm10.55-.02c-.27,.15-.37,.35-.21,.64,.27-.15,.37-.35,.21-.64ZM15.01,20.55c.02-.45-.17-.36-.5-.27,.24,.13,.37,.2,.5,.27Zm13.82,2.33c0-.47-.24-.27-.58-.28,.28,.13,.42,.2,.58,.28ZM-2.36,19.63c.14-.25,.21-.33,.2-.38-.01-.06-.11-.09-.17-.14-.05,.06-.12,.12-.13,.19,0,.08,.05,.16,.1,.33Zm41.66-6.51c.16,.12,.24,.18,.41,.3-.02-.24-.03-.37-.05-.6-.16,.13-.25,.2-.36,.3ZM16.4,7.45c.1,.09,.19,.16,.33,.28v-.55c-.13,.11-.22,.18-.33,.27Zm25.68,13.8s-.08-.07-.12-.11c-.07,.08-.13,.15-.2,.23,.03,.03,.05,.06,.08,.08,.08-.07,.17-.14,.25-.2Z" style="fill: #668080;"/>
        <path d="M51.44,24.33c.47,1.19,.7,2.39,.54,3.72-.11,.92-.55,1.52-1.17,2.02-1.09,.89-2.36,1.28-3.78,.97-.16-.04-.35-.07-.48-.17-1.25-.94-2.8-1.23-4.17-1.89-.94,.02-1.64-.61-2.38-1.03-.57-.32-.94-1-1.47-1.6-.18,.07-.46,.15-.74,.28-.76,.35-1.51,.28-2.26,.01-1.21-.44-2.29-1.13-3.4-1.77-.96-.55-2.08-.8-3.14-1.18-.25-.09-.52-.15-.77-.25-.86-.34-1.73-.65-2.56-1.05-.97-.47-1.89-1.02-2.78-1.5-.08-.31-.13-.53-.19-.78-.19,.14-.34,.25-.47,.34-.11,0-.18,.02-.24,0-2.71-1.02-5.43-2.02-8.12-3.09-.77-.31-1.44-.85-2.19-1.23-.54-.27-1.11-.52-1.69-.63-1.22-.24-2.44-.43-3.61-.93-2.61-1.11-5.26-2.14-7.89-3.23-.93-.39-1.88-.8-2.72-1.35-.82-.54-1.43-1.34-1.62-2.36-.17-.91-.05-1.81,.21-2.68,.36-1.26,1.89-2.53,3.69-2.41,.43,.03,.87,.14,1.27,.29,1.21,.46,2.47,.87,3.61,1.48,2.93,1.56,6.08,2.61,9.12,3.9,3.06,1.29,6.15,2.51,9.22,3.76,.51,.21,.99,.49,1.54,.64,.52,.15,1.02,.39,1.52,.61,2.15,.94,4.3,1.88,6.47,2.83,.06,.32,.11,.61,.19,1.05,.28-.25,.48-.42,.77-.67,.5,.14,1.09,.27,1.65,.49,1.09,.41,2.16,.87,3.24,1.3,.28,.11,.57,.19,.92,.31,.01,.26-.2,.73,.5,.9,.23-.12,.56-.28,.89-.45,1.56,.55,3.3,.72,4.71,2.07-.01-.04,.03,.11,.1,.33,.23-.06,.45-.11,.78-.19,.58,.32,1.2,.73,1.89,1,1.07,.43,2.18,.75,3.26,1.13,.32,.11,.65,.22,.95,.39,.29,.17,.53,.41,.81,.63Zm-20.6-3.1c.54-.03,.8-.22,.7-.63-.1-.42-.42-.49-.84-.26,.04,.27,.09,.55,.14,.9ZM7.56,13.75q.74-.3,.42-.95-.61,.25-.42,.95Zm-2.76-4.25c-.64,.59-.73,1-.27,1.18,.17-.16,.36-.33,.58-.52-.1-.21-.19-.39-.31-.66ZM51.26,28.37c.68-.58,.64-.77-.1-1.03-.34,.36-.07,.66,.1,1.03Zm-7.39-.91c-.24,.05-.45,.1-.66,.15,.1,.3,.16,.49,.25,.74,.29-.16,.53-.29,.8-.44-.18-.21-.31-.35-.4-.45ZM.7,6.49c-.27,.14-.51,.27-.8,.41,.15,.23,.25,.38,.37,.56,.23-.2,.4-.35,.58-.5-.05-.15-.09-.27-.16-.47ZM14.91,16c.09-.31,.15-.52,.22-.76-.21-.05-.35-.08-.54-.13-.08,.27-.14,.48-.2,.68,.17,.07,.29,.12,.51,.21Zm26.3,8.07c.19,.05,.34,.09,.53,.14,.1-.32,.18-.57,.28-.89-.43,.12-.78,.18-.82,.75ZM-4.26,8.96c.29-.09,.55-.16,.85-.25-.1-.2-.18-.33-.25-.46-.44,.04-.67,.2-.6,.71Zm10.78-1.44c-.19-.28-.3-.44-.49-.73-.13,.37-.21,.6-.34,.95,.31-.09,.49-.14,.83-.23Zm21.2,8.53c-.09-.33-.2-.58-.59-.44,.02,.2,.04,.38,.07,.63,.23-.08,.37-.13,.52-.19Zm-10.5,1.17c.08-.22,.14-.4,.27-.76-.36,.17-.55,.26-.83,.39,.23,.15,.36,.23,.56,.36Zm11.54-.64c.18-.12,.33-.22,.6-.4-.32-.09-.5-.14-.8-.23,.09,.28,.14,.43,.2,.63Zm12.57,11.08c.06-.05,.12-.09,.18-.14-.05-.16-.11-.32-.17-.53-.19,.12-.32,.21-.54,.35,.24,.14,.39,.23,.53,.32ZM21.54,13.15c.09,.38,.14,.59,.23,.98,.29-.48,.21-.68-.23-.98Zm-11.25-4.12c.39-.08,.57-.24,.24-.58-.1,.24-.17,.41-.24,.58Zm-1.71,1.25c-.03-.07-.07-.14-.1-.21-.17,.04-.34,.08-.54,.13,.08,.16,.13,.27,.2,.42,.16-.13,.3-.24,.43-.34Zm39.94,13.91c-.08-.03-.15-.06-.23-.09-.07,.15-.15,.3-.22,.46,.18,.05,.28,0,.34-.06,.06-.08,.08-.2,.11-.3Zm-12.03,1.42c-.08-.18-.13-.34-.17-.34-.13,0-.25,.06-.41,.11,.09,.17,.14,.27,.19,.37,.15-.06,.24-.09,.38-.14Zm-8.38-3.76l.12-.05c-.05-.12-.09-.23-.14-.35-.04,.02-.08,.03-.13,.05,.05,.12,.09,.23,.14,.35Zm2.38-1.93l.05-.13s-.08,.01-.09,.03c0,.02,.02,.06,.03,.1Z" style="fill: #668080;"/>
      </g>
    </g>
  </g>
</svg>