<?xml version="1.0" encoding="UTF-8"?>
<svg id="uuid-82bad171-d490-476e-a430-a5337375b768" data-name="Livello 2" xmlns="http://www.w3.org/2000/svg" viewBox="0 0 166.4 166.16">
  <g id="uuid-2c7b1f7a-c991-4300-9e08-da0d13f9bc7b" data-name="Livello 1">
    <g>
      <g>
        <path d="M83.2,.2C37.36,.2,.2,37.31,.2,83.08s37.15,82.87,82.99,82.87,82.99-37.1,82.99-82.87S129.03,.2,83.2,.2Zm0,18.77c30.28,0,55.67,20.94,62.42,49.1H20.77c6.76-28.17,32.14-49.1,62.42-49.1Zm0,128.21c-30.84,0-56.6-21.72-62.78-50.67h125.56c-6.18,28.95-31.94,50.67-62.78,50.67Z" style="fill: #fff; stroke: #d20038; stroke-miterlimit: 10; stroke-width: .41px;"/>
        <g>
          <path d="M36.98,90.55l.08-1.37,2.45-.32c-.3-3.12-.6-8.82-.66-11.08-1.13,2.41-3.62,8.95-4.8,12.8l-2.43,.02c-1.22-3.63-3.59-9.76-5.02-12.73,0,2.33-.26,8.67-.43,11.09l2.31,.29,.08,1.37-6.41,.05,.08-1.37,2.1-.32c.35-3.75,.74-10.67,.75-12.54l-2.31-.26,.11-1.4,5.22-.04c1.42,2.92,3.89,8.68,5.27,12.7,1.07-3.39,3.59-9.55,5.11-12.78l5.2-.04,.1,1.4-2.35,.3c.02,3.12,.44,9.01,.86,12.53l2.24,.29,.1,1.37-7.65,.06Z"/>
          <path d="M55.88,90.41l.08-1.4,2.19-.3c-.43-1.07-.88-2.07-1.43-3.58l-5.41,.04c-.39,1.17-1.01,2.62-1.4,3.6l2.22,.26,.1,1.4-6.11,.04,.11-1.37,1.58-.31c1.61-3.51,3.96-9.77,5.4-14.25l2.54-.02c1.05,3.3,4.04,10.76,5.68,14.17l1.64,.29,.08,1.37-7.28,.05Zm-1.85-13.19h-.12c-.43,1.52-1.57,4.97-2.1,6.44l4.41-.03c-.79-2.16-1.69-4.79-2.19-6.41Z"/>
          <path d="M78.04,90.95l-6.49-7.62-1.24-.18,.5-1.52,1.75,.2c1.02-.22,2.09-1.53,2.08-3.21-.01-1.89-1.21-2.76-3.01-2.75-.49,0-1.24,.06-1.77,.08l.09,12.67,2.1,.29,.1,1.37-7.28,.05,.11-1.38,2.17-.32-.09-12.53-2.27-.29,.11-1.37,3.78-.03s3.26-.16,3.99-.17c2.94-.02,4.84,1.5,4.86,4.2,.02,2.19-1.42,3.71-3,4.07v.07s5.66,7.74,5.66,7.74l-2.14,.6Z"/>
          <path d="M94.4,90.27c-.49-.02-2.08-.12-2.82-.12l-9.54,.07,.08-1.37,2.14-.32-.09-12.53-2.26-.29,.11-1.37,11.62-.08-.25,3.87-1.42,.24-.28-2.49-4.67,.03,.04,5.31,4.29-.03,.52-1.96,1.38,.08-.17,2.66,.21,2.86-1.38,.1-.55-2.16-4.29,.03,.04,5.78,5.34-.04,.56-2.89,1.4,.15v4.47Z"/>
          <path d="M109.04,90.17c-.42-.02-2.01-.13-2.68-.12l-9.28,.07,.08-1.37,2.14-.32-.09-12.53-2.29-.29,.13-1.38,7.49-.05-.08,1.37-2.38,.32,.09,12.55,4.87-.04,.6-3.48,1.38,.15v5.1Z"/>
          <path d="M123.28,90.06c-.42-.02-2.01-.13-2.68-.12l-9.28,.07,.08-1.37,2.14-.32-.09-12.53-2.29-.29,.13-1.38,7.49-.05-.08,1.37-2.38,.32,.09,12.55,4.87-.04,.6-3.48,1.38,.15v5.1Z"/>
          <path d="M134.66,89.84l.08-1.4,2.19-.3c-.43-1.07-.88-2.07-1.43-3.58l-5.41,.04c-.39,1.17-1.01,2.62-1.4,3.6l2.22,.26,.1,1.4-6.11,.04,.11-1.37,1.58-.31c1.61-3.51,3.96-9.77,5.4-14.25l2.54-.02c1.05,3.3,4.04,10.76,5.68,14.17l1.64,.29,.08,1.37-7.28,.05Zm-1.85-13.19h-.12c-.43,1.52-1.57,4.97-2.1,6.44l4.41-.03c-.79-2.16-1.69-4.79-2.19-6.41Z"/>
        </g>
      </g>
      <g>
        <path d="M7.69,82.79c0-1.12,.92-2.04,2.05-2.04,1.12,0,2.04,.92,2.04,2.04,0,1.12-.92,2.04-2.05,2.04s-2.04-.92-2.04-2.05Z" style="fill: #b2163a;"/>
        <path d="M6.86,65.91c.13-.58,.37-1.38,.99-1.96,.71-.68,1.7-.85,2.57-.66,.55,.13,1.38,.46,1.87,1.4,.47,.9,.37,1.79,.21,2.49l-.15,.65,3.85,.88-.33,1.45-9.48-2.16,.48-2.09Zm4.15,1.62l.15-.65c.28-1.25-.19-1.99-1.07-2.19-.53-.12-1.51-.12-1.89,1.53l-.15,.64,2.96,.67Z" style="fill: #b2163a;"/>
        <path d="M9.05,58.09c.39-1.11,.78-1.78,1.39-2.23,1.03-.77,2.14-.47,2.54-.33,1.32,.46,2,1.61,1.84,2.93l4.93-1.48-.6,1.69-4.68,1.31-.09,.25,3.75,1.32-.49,1.4-9.17-3.23,.58-1.64Zm4.13,1.71l.15-.44c.14-.38,.65-1.97-.81-2.48-1.29-.46-1.85,.73-2.09,1.41l-.17,.48,2.92,1.03Z" style="fill: #b2163a;"/>
        <path d="M20.61,44.49c2.53,1.33,3.47,4.24,2.11,6.82-1.36,2.58-4.29,3.46-6.82,2.13-2.53-1.33-3.46-4.24-2.11-6.82,1.36-2.58,4.29-3.46,6.82-2.13Zm-.69,1.32c-1.91-1-3.94-.39-4.91,1.45-.97,1.84-.32,3.87,1.59,4.87,1.91,1,3.94,.39,4.91-1.45,.97-1.84,.32-3.86-1.59-4.87Z" style="fill: #b2163a;"/>
        <path d="M24.51,34.72c-1.43,.28-2.11,1.03-2.44,1.48-1.26,1.7-.86,3.77,.86,5.05,1.65,1.23,3.81,.98,5.05-.68,.7-.94,.75-2.02,.66-2.78l1.42,1.05c-.11,1.13-.6,2.04-1,2.58-1.05,1.42-2.36,1.83-3.13,1.96-1.53,.28-2.78-.12-3.88-.94-1.44-1.07-1.99-2.4-2.13-3.52-.16-1.37,.28-2.5,1.08-3.58,.53-.71,1.17-1.31,2.11-1.67l1.41,1.04Z" style="fill: #b2163a;"/>
        <path d="M29.68,27.87l-2.68,2.8,1.78,1.7,2.6-2.72,1.01,.97-2.6,2.72,2.21,2.11,2.68-2.8,1.01,.97-3.71,3.88-7.03-6.72,3.71-3.88,1.01,.97Z" style="fill: #b2163a;"/>
        <path d="M35.83,23.52c-.21-.11-.44-.18-.73-.19-.39,0-.71,.13-1.03,.4-.69,.58-.71,1.29-.31,1.77,.19,.22,.59,.55,1.56,.24l1-.32c1.84-.59,2.88-.12,3.59,.73,1.18,1.42,.99,3.24-.41,4.4-.86,.72-1.65,.82-2.38,.71-.78-.11-1.37-.46-1.84-.94l.93-1.19c.31,.37,.73,.61,1.11,.69,.44,.09,.9,.01,1.35-.36,.7-.58,.81-1.53,.19-2.28-.63-.76-1.48-.59-2.14-.38l-.97,.29c-.83,.25-2.17,.49-3.1-.63-.84-1.01-.86-2.63,.54-3.79,.81-.67,1.52-.75,1.92-.74,.35,.01,.78,.09,1.2,.27l-.47,1.3Z" style="fill: #b2163a;"/>
        <path d="M42.73,18.62c-.19-.13-.41-.23-.7-.27-.39-.04-.72,.05-1.07,.29-.75,.5-.85,1.2-.5,1.73,.16,.24,.53,.61,1.53,.41l1.03-.21c1.9-.38,2.87,.2,3.48,1.13,1.02,1.55,.62,3.33-.9,4.33-.94,.62-1.73,.63-2.45,.44-.76-.2-1.31-.6-1.73-1.13l1.05-1.08c.26,.4,.66,.68,1.02,.81,.42,.14,.89,.11,1.38-.21,.75-.5,.98-1.43,.44-2.25-.55-.83-1.4-.75-2.08-.62l-1,.18c-.85,.16-2.21,.25-3.01-.97-.72-1.1-.56-2.7,.96-3.71,.88-.58,1.59-.58,1.99-.53,.35,.05,.76,.18,1.16,.41l-.61,1.24Z" style="fill: #b2163a;"/>
        <path d="M54.78,11.64l-3.1,1.36,.99,2.25,2.99-1.31,.56,1.28-2.99,1.31,1.79,4.08-1.36,.6-3.9-8.9,4.46-1.96,.56,1.28Z" style="fill: #b2163a;"/>
        <path d="M67.99,11.14c.78,2.75-.69,5.44-3.49,6.23-2.81,.79-5.46-.72-6.24-3.47-.78-2.75,.69-5.44,3.49-6.23,2.81-.79,5.46,.72,6.24,3.47Zm-1.43,.41c-.59-2.08-2.43-3.13-4.44-2.56-2,.57-3.02,2.43-2.43,4.51,.59,2.08,2.43,3.13,4.44,2.56,2-.57,3.02-2.43,2.43-4.51Z" style="fill: #b2163a;"/>
        <path d="M71.96,5.65c1.17-.16,1.94-.11,2.62,.22,1.15,.57,1.39,1.7,1.44,2.12,.18,1.39-.53,2.51-1.78,2.97l3.56,3.72-1.78,.24-3.29-3.58-.26,.03,.53,3.95-1.48,.2-1.29-9.64,1.72-.23Zm.34,4.46l.46-.06c.41-.05,2.05-.32,1.84-1.85-.18-1.36-1.49-1.32-2.21-1.22l-.51,.07,.41,3.06Z" style="fill: #b2163a;"/>
        <path d="M85.43,8.69l4.16,.24,.22-3.84,1.49,.08-.55,9.71-1.49-.08,.25-4.47-4.16-.24-.25,4.47-1.49-.08,.55-9.71,1.49,.08-.22,3.84Z" style="fill: #b2163a;"/>
        <path d="M96.53,5.97l-1.56,9.6-1.47-.24,1.56-9.6,1.47,.24Z" style="fill: #b2163a;"/>
        <path d="M103.93,12.48l3.85,1.09-.02,.07c-.45,1.6-1.3,2.77-2.46,3.39-1.23,.67-2.45,.59-3.52,.29-1.36-.39-2.22-1.05-2.82-2.18-.65-1.2-.77-2.58-.39-3.93,.41-1.46,1.36-2.55,2.35-3.11,1.03-.59,2.47-.81,3.92-.41,.84,.24,1.66,.67,2.27,1.28,.65,.65,.97,1.33,1.12,1.83l-1.36,.48c-.17-.47-.47-1.01-.85-1.39-.43-.46-.96-.71-1.54-.88-1.22-.35-2.15-.06-2.74,.27-.79,.44-1.45,1.33-1.74,2.34-.27,.94-.18,1.98,.25,2.81,.45,.87,1.18,1.35,2.08,1.6,.81,.23,1.55,.18,2.32-.24,.66-.36,1.03-.84,1.23-1.36l-2.33-.66,.37-1.32Z" style="fill: #b2163a;"/>
        <path d="M112.23,14.56l3.79,1.74,1.6-3.5,1.35,.62-4.05,8.84-1.35-.62,1.86-4.07-3.79-1.74-1.86,4.07-1.35-.62,4.05-8.84,1.35,.62-1.6,3.5Z" style="fill: #b2163a;"/>
        <path d="M126.86,29.53c-.9-.07-1.72-.38-2.62-1.06-2.33-1.75-2.75-4.77-1.01-7.07,1.72-2.29,4.74-2.75,7.08-.99,2.32,1.74,2.73,4.79,1.01,7.07-1.07,1.42-2.36,1.83-3.17,1.98l.32,2.19-1.47-1.1-.15-1.02Zm1.09-1.48c.7-.15,1.44-.49,2.18-1.46,1.3-1.72,1.02-3.83-.65-5.08-1.67-1.25-3.77-.93-5.06,.79-1.3,1.73-1.02,3.83,.65,5.09,.58,.44,1.1,.62,1.57,.7l-.47-3.22,1.48,1.11,.3,2.07Z" style="fill: #b2163a;"/>
        <path d="M138,27.21l-4.21,4.08c-.38,.37-.83,.82-.99,1.39-.15,.55-.06,1.38,.53,2,.6,.62,1.42,.73,1.98,.6,.57-.15,1.04-.58,1.42-.95l4.21-4.08,1.03,1.07-4.5,4.35c-.56,.54-1.34,1.07-2.44,1.11-.75,.02-1.77-.19-2.69-1.15-.92-.95-1.1-1.98-1.06-2.73,.07-1.1,.63-1.87,1.18-2.4l4.5-4.35,1.03,1.07Z" style="fill: #b2163a;"/>
        <path d="M141.96,43.41l-2.43-3.37-2.53,.51-.94-1.3,11.18-2.09-5.66,9.75-.94-1.3,1.31-2.2Zm.79-1.3l1.83-3.1-3.55,.71,1.72,2.39Z" style="fill: #b2163a;"/>
        <path d="M151.54,44.98l-7.28,4.04,1.39,2.5-1.22,.68-2.11-3.8,8.5-4.71,.72,1.3Z" style="fill: #b2163a;"/>
        <path d="M154.68,51.26l-8.85,4.03-.62-1.35,8.85-4.03,.62,1.35Z" style="fill: #b2163a;"/>
        <path d="M155.7,57.61l-7.83,2.83-.51-1.4,7.83-2.83-.76-2.1,1.32-.48,2.02,5.6-1.32,.48-.76-2.1Z" style="fill: #b2163a;"/>
        <path d="M153.75,65.51l4.64-4.38,.39,1.65-3.27,3.09,4.31,1.29,.39,1.65-6.12-1.83-4.09,.97-.34-1.45,4.09-.97Z" style="fill: #b2163a;"/>
        <path d="M158.71,82.48c.01,1.12-.9,2.05-2.02,2.06-1.12,.01-2.05-.9-2.06-2.02-.01-1.12,.9-2.05,2.02-2.06,1.12-.01,2.05,.9,2.06,2.02Z" style="fill: #b2163a;"/>
        <path d="M159.73,99.33c-.13,.58-.36,1.38-.96,1.97-.7,.69-1.69,.87-2.56,.69-.56-.12-1.38-.45-1.88-1.37-.48-.89-.39-1.78-.24-2.48l.14-.66-3.86-.83,.31-1.45,9.51,2.04-.45,2.09Zm-4.17-1.57l-.14,.66c-.27,1.25,.21,1.99,1.1,2.17,.53,.11,1.51,.1,1.87-1.55l.14-.64-2.96-.64Z" style="fill: #b2163a;"/>
        <path d="M157.63,107.19c-.38,1.12-.76,1.79-1.36,2.25-1.02,.78-2.14,.49-2.54,.36-1.33-.45-2.01-1.59-1.87-2.91l-4.91,1.54,.57-1.7,4.66-1.36,.08-.25-3.77-1.28,.48-1.41,9.21,3.12-.56,1.64Zm-4.14-1.67l-.15,.44c-.13,.39-.62,1.97,.84,2.47,1.3,.44,1.84-.75,2.07-1.44l.16-.48-2.93-.99Z" style="fill: #b2163a;"/>
        <path d="M146.23,120.94c-2.54-1.3-3.51-4.21-2.19-6.8s4.25-3.51,6.8-2.21c2.54,1.3,3.51,4.21,2.19,6.8-1.33,2.6-4.25,3.51-6.8,2.21Zm.68-1.32c1.92,.98,3.95,.35,4.9-1.51,.95-1.86,.28-3.87-1.64-4.85-1.92-.98-3.95-.35-4.9,1.51-.95,1.86-.28,3.87,1.64,4.85Z" style="fill: #b2163a;"/>
        <path d="M142.45,130.75c1.42-.3,2.1-1.06,2.42-1.5,1.24-1.71,.81-3.78-.92-5.04-1.67-1.21-3.82-.93-5.04,.74-.68,.94-.73,2.03-.63,2.78l-1.43-1.03c.1-1.13,.58-2.05,.98-2.59,1.03-1.43,2.33-1.86,3.1-2,1.53-.3,2.78,.09,3.89,.89,1.45,1.05,2.02,2.38,2.17,3.5,.18,1.37-.25,2.5-1.03,3.59-.52,.72-1.16,1.32-2.09,1.69l-1.42-1.03Z" style="fill: #b2163a;"/>
        <path d="M137.35,137.65l2.64-2.83-1.8-1.68-2.57,2.75-1.02-.95,2.57-2.75-2.24-2.09-2.64,2.83-1.02-.95,3.66-3.92,7.11,6.63-3.66,3.92-1.02-.95Z" style="fill: #b2163a;"/>
        <path d="M131.27,142.07c.21,.11,.44,.18,.73,.18,.39,0,.7-.14,1.03-.41,.69-.59,.69-1.3,.29-1.78-.19-.22-.6-.54-1.57-.22l-1,.33c-1.84,.61-2.88,.15-3.6-.69-1.2-1.41-1.03-3.22,.36-4.41,.85-.73,1.64-.84,2.38-.74,.78,.1,1.37,.44,1.85,.91l-.91,1.2c-.31-.37-.74-.6-1.12-.68-.44-.09-.9,0-1.34,.38-.69,.59-.79,1.54-.16,2.28,.64,.75,1.48,.57,2.14,.36l.97-.31c.83-.26,2.16-.52,3.11,.59,.85,1,.89,2.61-.5,3.8-.8,.68-1.51,.77-1.91,.77-.35,0-.78-.08-1.2-.26l.46-1.31Z" style="fill: #b2163a;"/>
        <path d="M124.4,147.06c.19,.13,.42,.23,.7,.26,.39,.03,.72-.06,1.07-.3,.75-.51,.83-1.21,.48-1.73-.16-.24-.53-.61-1.53-.39l-1.03,.22c-1.89,.4-2.88-.17-3.5-1.09-1.04-1.53-.66-3.32,.85-4.34,.93-.63,1.72-.65,2.44-.47,.76,.19,1.31,.59,1.74,1.11l-1.04,1.09c-.27-.4-.67-.67-1.03-.8-.42-.13-.89-.1-1.38,.23-.75,.51-.96,1.44-.41,2.25,.56,.82,1.41,.74,2.09,.59l.99-.2c.85-.17,2.21-.28,3.02,.93,.73,1.09,.59,2.7-.92,3.72-.87,.59-1.59,.6-1.99,.55-.35-.05-.76-.17-1.16-.39l.6-1.25Z" style="fill: #b2163a;"/>
        <path d="M112.44,154.19l3.08-1.4-1.02-2.24-2.98,1.35-.58-1.27,2.98-1.35-1.84-4.06,1.35-.61,4.01,8.86-4.44,2.01-.58-1.27Z" style="fill: #b2163a;"/>
        <path d="M99.23,154.84c-.81-2.74,.62-5.45,3.42-6.27,2.8-.83,5.47,.66,6.28,3.4,.81,2.74-.62,5.45-3.42,6.27-2.8,.83-5.47-.66-6.28-3.4Zm1.43-.42c.61,2.07,2.47,3.1,4.47,2.51,2-.59,3-2.47,2.38-4.54-.61-2.07-2.47-3.1-4.47-2.51-2,.59-2.99,2.47-2.38,4.54Z" style="fill: #b2163a;"/>
        <path d="M95.34,160.36c-1.17,.17-1.94,.13-2.62-.19-1.16-.55-1.41-1.68-1.47-2.1-.2-1.39,.5-2.52,1.75-2.99l-3.6-3.68,1.78-.26,3.33,3.54,.26-.04-.57-3.94,1.47-.21,1.4,9.62-1.72,.25Zm-.4-4.45l-.46,.07c-.4,.06-2.04,.34-1.82,1.87,.2,1.36,1.5,1.3,2.22,1.2l.51-.07-.44-3.06Z" style="fill: #b2163a;"/>
        <path d="M81.84,157.48l-4.16-.19-.17,3.84-1.49-.07,.44-9.71,1.49,.07-.2,4.47,4.16,.19,.2-4.47,1.49,.07-.44,9.71-1.48-.07,.17-3.84Z" style="fill: #b2163a;"/>
        <path d="M70.76,160.32l1.46-9.61,1.47,.22-1.46,9.61-1.47-.22Z" style="fill: #b2163a;"/>
        <path d="M63.3,153.91l-3.87-1.05,.02-.07c.43-1.6,1.27-2.78,2.42-3.42,1.23-.68,2.45-.62,3.52-.33,1.37,.37,2.23,1.03,2.85,2.14,.66,1.19,.8,2.57,.43,3.92-.4,1.46-1.33,2.57-2.31,3.13-1.02,.6-2.46,.84-3.91,.45-.84-.23-1.67-.65-2.29-1.25-.66-.65-.98-1.32-1.14-1.82l1.36-.49c.18,.47,.48,1.01,.86,1.38,.44,.45,.97,.7,1.55,.86,1.22,.33,2.15,.04,2.74-.3,.79-.45,1.44-1.35,1.71-2.36,.26-.94,.16-1.98-.28-2.81-.46-.86-1.19-1.33-2.09-1.58-.82-.22-1.56-.16-2.32,.26-.66,.37-1.02,.86-1.22,1.38l2.33,.63-.36,1.32Z" style="fill: #b2163a;"/>
        <path d="M54.94,151.91l-3.81-1.69-1.56,3.52-1.36-.6,3.95-8.88,1.36,.6-1.82,4.09,3.81,1.69,1.82-4.09,1.36,.6-3.95,8.88-1.36-.6,1.56-3.52Z" style="fill: #b2163a;"/>
        <path d="M40.16,137.13c.9,.06,1.72,.36,2.63,1.02,2.35,1.72,2.8,4.73,1.1,7.06-1.69,2.3-4.71,2.8-7.06,1.08-2.34-1.72-2.79-4.76-1.1-7.06,1.05-1.43,2.34-1.86,3.14-2.02l-.35-2.19,1.48,1.09,.16,1.02Zm-1.07,1.49c-.69,.16-1.44,.5-2.16,1.49-1.28,1.74-.97,3.84,.71,5.08,1.68,1.23,3.78,.89,5.05-.85,1.28-1.74,.97-3.84-.71-5.08-.59-.43-1.11-.61-1.58-.69l.5,3.21-1.49-1.1-.33-2.07Z" style="fill: #b2163a;"/>
        <path d="M29.05,139.58l4.17-4.12c.37-.37,.82-.83,.98-1.4,.15-.56,.05-1.38-.56-1.99-.61-.61-1.43-.72-1.99-.58-.57,.15-1.03,.59-1.41,.96l-4.17,4.13-1.05-1.06,4.45-4.4c.55-.54,1.33-1.09,2.43-1.13,.75-.03,1.77,.17,2.71,1.12,.93,.94,1.13,1.96,1.09,2.72-.06,1.1-.61,1.87-1.16,2.42l-4.45,4.4-1.05-1.06Z" style="fill: #b2163a;"/>
        <path d="M24.89,123.41l2.47,3.34,2.52-.54,.95,1.29-11.15,2.22,5.54-9.82,.95,1.29-1.28,2.21Zm-.77,1.31l-1.79,3.12,3.54-.75-1.75-2.37Z" style="fill: #b2163a;"/>
        <path d="M15.29,121.95l7.24-4.12-1.41-2.48,1.22-.69,2.15,3.78-8.45,4.81-.73-1.29Z" style="fill: #b2163a;"/>
        <path d="M12.09,115.72l8.8-4.13,.63,1.35-8.8,4.13-.63-1.35Z" style="fill: #b2163a;"/>
        <path d="M10.99,109.36l7.8-2.91,.52,1.39-7.8,2.91,.78,2.09-1.31,.49-2.08-5.57,1.31-.49,.78,2.09Z" style="fill: #b2163a;"/>
        <path d="M12.85,101.46l-4.59,4.44-.41-1.64,3.23-3.12-4.32-1.24-.41-1.64,6.13,1.76,4.07-1.02,.36,1.44-4.07,1.02Z" style="fill: #b2163a;"/>
      </g>
    </g>
  </g>
</svg>