<?xml version="1.0" encoding="UTF-8"?>
<svg id="uuid-90826def-ed76-4534-b547-da0bef58fdf6" data-name="Livello 2" xmlns="http://www.w3.org/2000/svg" viewBox="0 0 57.79 57.8">
  <g id="uuid-94d31d49-e8a6-4967-89d6-5362a2e1eb6c" data-name="Livello 1">
    <g>
      <path d="M54.63,57.67c-17.11,.04-34.21,.09-51.32,.13-.27-.17-.52-.37-.81-.51-1.22-.58-1.91-1.59-2.24-2.84-.13-.5-.12-1.04-.13-1.57C.08,36.98,.04,21.09,0,5.19c0-.34,0-.67,.02-1.01C.18,2.06,1.91,.33,4.03,.16c.48-.04,.96-.02,1.44-.02C21.08,.09,36.68,.05,52.29,0c.38,0,.77-.02,1.15,0,1.59,.11,2.83,.81,3.64,2.22,.18,.32,.38,.62,.58,.94,.04,17.11,.09,34.21,.13,51.32-.72,1.28-1.51,2.48-3.01,2.97-.07,.02-.1,.14-.15,.21ZM1.8,28.97c.02,7.98,.08,15.95,.03,23.93-.01,1.93,1.32,3.38,3.21,3.16,.14-.02,.29,0,.43,0,15.66-.04,31.33-.08,46.99-.12,.38,0,.77,.02,1.15-.02,1.33-.13,2.3-1.11,2.42-2.44,.04-.43,.01-.86,.01-1.3-.04-15.57-.08-31.14-.12-46.7,0-.29-.02-.58,0-.86,.12-1.67-1.36-3.02-2.89-2.87-.29,.03-.58,0-.86,0-15.57,.04-31.14,.08-46.7,.12-.29,0-.58,0-.86,0-1.83,.06-2.82,1.06-2.87,2.89,0,.34,0,.67,0,1.01,.02,7.74,.04,15.47,.06,23.21Z" style="fill: #fff;"/>
      <path d="M10.99,47.41c12.11-.03,24.01-.06,35.88-.09,.53,1.07,.34,1.54-.62,1.66-.24,.03-.48,0-.72,.01-11.05,.03-22.1,.06-33.15,.09-.24,0-.48,0-.72,0-.54-.02-.91-.26-1.09-.9,.12-.21,.27-.49,.42-.76Z" style="fill: #fff;"/>
      <path d="M28.4,34.92c-1.74-2.65-2.2-5.41-1.04-8.35,.26-.66,.62-1.29,.95-1.93,1.24-2.32,1.31-4.65,.09-7.01-.13-.25-.26-.51-.36-.78-.03-.08,0-.19,0-.39,.2-.62,.7-.68,1.39-.5,1.85,2.8,2.17,5.74,.77,8.83-.22,.48-.49,.93-.74,1.4-1.24,2.27-1.27,4.56-.14,6.88,.08,.17,.2,.33,.28,.5,.4,.92,.13,1.26-1.19,1.35Z" style="fill: #fff;"/>
      <path d="M14.01,16.74q.44-.82,1.46-.69c1.77,2.68,2.14,5.53,.84,8.55-.24,.57-.55,1.11-.85,1.66-1.22,2.22-1.31,4.45-.18,6.73,.19,.38,.36,.78,.53,1.14-.18,.73-.58,1.01-1.39,.77-1.56-2.22-2.11-4.69-1.35-7.4,.23-.82,.59-1.63,1.02-2.36,1.5-2.57,1.69-5.13,.18-7.76-.12-.2-.18-.44-.26-.64Z" style="fill: #fff;"/>
      <path d="M43.41,15.94c2.05,3.18,2.16,6.36,.37,9.59-.68,1.23-1.26,2.47-1.33,3.91-.06,1.18,.25,2.28,.72,3.34,.14,.31,.33,.59,.44,.9,.26,.77,0,1.06-1.12,1.22-1.07-1.24-1.57-2.76-1.75-4.4-.19-1.72,.21-3.34,.99-4.87,.26-.51,.54-1.02,.8-1.53,.99-1.97,1-3.97,.12-5.97-.19-.44-.42-.86-.63-1.26q.25-1,1.39-.93Z" style="fill: #fff;"/>
    </g>
  </g>
</svg>