<?xml version="1.0" encoding="UTF-8"?>
<svg id="uuid-5a7cbef5-b0f0-4a9f-9196-a0ec116ad6a6" data-name="Livello 2" xmlns="http://www.w3.org/2000/svg" viewBox="0 0 61.4 42.37">
  <g id="uuid-7bb8c3a4-95e5-40ff-8d9c-3ab91878b67a" data-name="Livello 1">
    <g>
      <path d="M.75,25.86c.13-.09,.29-.16,.37-.28,2.33-3.22,5.68-3.89,9.03-1.81,.13,.08,.29,.12,.54,.22,3.37-3.15,6.76-6.32,10.2-9.53-.26-.44-.53-.84-.75-1.28-1.66-3.32-1.59-6.57,.67-9.58C23.05,.61,26.08-.52,29.78,.22c.3,.06,.62,.03,.94,.04,.1,.04,.21,.07,.31,.11,.25,.18,.48,.43,.76,.54,3.32,1.36,6.07,6.05,4.59,10.46-.28,.82-.56,1.64-.89,2.61,4.92,3.93,9.9,7.91,14.94,11.94,.37-.24,.68-.44,.99-.64,2.24-1.44,4.59-1.55,6.83-.21,2.18,1.3,3.26,3.33,3.07,5.93-.01,.21,.06,.42,.09,.63-.25,.73-.5,1.45-.75,2.18-.26,.26-.53,.5-.77,.77-1.95,2.18-5.01,3.23-8.34,1.25-2.6-1.55-3.58-5.06-2.35-7.98,.08-.2,.2-.38,.39-.73-5.03-4.02-10.05-8.03-15.17-12.13-1.69,1.57-3.63,2.5-6,2.8-.1,3.96-.19,7.87-.29,11.87,2.14,.51,3.83,1.56,4.78,3.51,.61,1.25,.85,2.58,.55,3.99-.82,3.88-3.96,5.3-6.45,5.21-3.1-.11-5.63-2.43-6.05-5.5-.48-3.47,1.33-5.82,5.7-7.33,.1-3.83,.19-7.7,.29-11.56-1.72-.75-3.4-1.48-5.27-2.29-3.26,3.05-6.64,6.21-10.04,9.39,.77,1.48,1.23,2.87,1.14,4.49-.17,3.19-3.66,6.34-7.33,5.61-.3-.06-.62-.02-.94-.02l-.31-.11c-.15-.14-.27-.33-.45-.41C1.3,33.46,.24,31.42,.12,28.78c-.01-.25-.08-.49-.12-.74,.25-.73,.5-1.45,.75-2.18ZM20.91,6.46c-1.43,3.8,.87,8.21,4.59,9.43,3.89,1.27,8.13-.76,9.45-4.61,1.32-3.86-.76-8.11-4.62-9.43-3.91-1.34-8.07,.7-9.41,4.61Zm4.66,34.15c2.59,.93,5.34-.34,6.27-2.9,.91-2.51-.35-5.41-2.9-6.3-2.6-.9-5.31,.26-6.36,3.07-.89,2.4,.55,5.25,2.99,6.13Zm24.84-11.64c-.93,2.34,.4,5.33,3.09,6.2,2.57,.83,5.28-.67,6.1-3.05,.97-2.82-.72-5.54-3-6.26-3.03-.95-5.58,.88-6.19,3.11ZM4.83,33.53c2.6,.92,5.28-.41,6.23-3.01,.84-2.27-.06-5.24-3.02-6.23-3.09-1.03-5.4,.92-6.14,2.95-1.07,2.91,.87,5.71,2.93,6.28Z" style="fill: #fff;"/>
      <path d="M30.55,3.45c-.2,.21-.37,.39-.58,.61-.29-.06-.55-.1-.81-.16-2.54-.54-4.7,.47-5.86,2.79-.26,.51-.43,1.03-1.16,.94-.5-.31-.55-.76-.36-1.28,1.12-2.99,4.84-4.79,7.84-3.79,.25,.08,.48,.24,.71,.39,.08,.05,.09,.19,.22,.48Z" style="fill: #fff;"/>
    </g>
  </g>
</svg>