<?xml version="1.0" encoding="UTF-8"?>
<svg id="uuid-63ffb6f8-0330-404f-9752-5ff8f3be54bf" data-name="Livello 2" xmlns="http://www.w3.org/2000/svg" viewBox="0 0 166.4 166.16">
  <g id="uuid-a3a78a1c-3eba-4ace-9463-9848dea9a579" data-name="Livello 1">
    <g>
      <path d="M83.2,.2C37.36,.2,.2,37.31,.2,83.08s37.15,82.87,82.99,82.87,82.99-37.1,82.99-82.87S129.03,.2,83.2,.2Zm0,18.77c30.28,0,55.67,20.94,62.42,49.1H20.77c6.76-28.17,32.14-49.1,62.42-49.1Zm0,128.21c-30.84,0-56.6-21.72-62.78-50.67h125.56c-6.18,28.95-31.94,50.67-62.78,50.67Z" style="fill: #fff; stroke: #d20038; stroke-miterlimit: 10; stroke-width: .41px;"/>
      <g>
        <path d="M8.25,58.97c.18-.57,.49-1.35,1.16-1.87,.77-.62,1.78-.71,2.63-.43,.55,.17,1.34,.58,1.75,1.56,.39,.94,.22,1.82,0,2.51l-.21,.64,3.78,1.21-.46,1.42-9.31-2.98,.66-2.05Zm4.02,1.98l.21-.64c.39-1.23-.02-2.01-.88-2.28-.52-.16-1.51-.25-2.03,1.37l-.2,.63,2.91,.93Z" style="fill: #b2163a;"/>
        <path d="M11.47,50.55c.5-1.08,.96-1.7,1.61-2.1,1.1-.67,2.19-.26,2.58-.08,1.28,.59,1.84,1.81,1.56,3.12l5.08-1-.76,1.63-4.81,.85-.11,.24,3.63,1.69-.63,1.35-8.87-4.12,.74-1.58Zm3.97,2.12l.2-.43c.17-.37,.84-1.91-.57-2.56-1.25-.58-1.92,.55-2.23,1.21l-.22,.46,2.82,1.31Z" style="fill: #b2163a;"/>
        <path d="M24.85,37.46c2.38,1.6,3.01,4.62,1.37,7.05-1.64,2.43-4.67,2.99-7.05,1.38s-3-4.62-1.37-7.05c1.64-2.43,4.67-2.99,7.05-1.38Zm-.84,1.24c-1.8-1.21-3.9-.82-5.07,.92-1.17,1.74-.74,3.83,1.06,5.04,1.8,1.21,3.9,.82,5.07-.91,1.17-1.74,.74-3.83-1.06-5.04Z" style="fill: #b2163a;"/>
        <path d="M30.43,27.56c-1.46,.11-2.23,.77-2.61,1.18-1.46,1.54-1.32,3.66,.25,5.14,1.5,1.42,3.69,1.44,5.12-.07,.81-.85,1-1.92,1-2.69l1.29,1.22c-.25,1.11-.85,1.96-1.32,2.45-1.22,1.29-2.57,1.54-3.36,1.58-1.56,.09-2.76-.46-3.76-1.41-1.31-1.24-1.7-2.64-1.7-3.77,0-1.39,.58-2.46,1.51-3.44,.62-.65,1.33-1.16,2.31-1.41l1.28,1.21Z" style="fill: #b2163a;"/>
        <path d="M37.09,20.86l-3.04,2.44,1.55,1.93,2.95-2.37,.88,1.1-2.95,2.37,1.93,2.4,3.04-2.44,.88,1.1-4.21,3.37-6.13-7.62,4.21-3.37,.88,1.1Z" style="fill: #b2163a;"/>
        <path d="M44.49,16.92c-.19-.14-.41-.25-.7-.29-.39-.05-.72,.03-1.08,.25-.77,.48-.89,1.18-.56,1.72,.15,.25,.51,.63,1.52,.46l1.04-.18c1.92-.32,2.88,.29,3.47,1.24,.98,1.58,.52,3.36-1.04,4.32-.96,.59-1.76,.58-2.48,.37-.76-.22-1.3-.65-1.7-1.19l1.09-1.05c.25,.41,.64,.71,1,.84,.42,.15,.9,.14,1.39-.17,.77-.48,1.03-1.41,.51-2.24-.52-.85-1.39-.8-2.08-.68l-1.01,.16c-.86,.14-2.23,.18-3-1.06-.69-1.12-.48-2.73,1.08-3.69,.9-.55,1.62-.53,2.02-.47,.35,.06,.76,.2,1.15,.44l-.65,1.23Z" style="fill: #b2163a;"/>
        <path d="M52.84,12.68c-.17-.16-.38-.29-.66-.38-.39-.1-.72-.06-1.11,.12-.83,.38-1.03,1.07-.76,1.64,.12,.27,.43,.69,1.46,.64l1.06-.05c1.95-.08,2.83,.64,3.29,1.65,.78,1.69,.11,3.4-1.56,4.16-1.03,.47-1.82,.36-2.5,.07-.72-.31-1.21-.8-1.54-1.39l1.21-.91c.2,.44,.55,.78,.89,.96,.4,.2,.87,.25,1.4,0,.83-.38,1.19-1.27,.78-2.16-.42-.91-1.28-.96-1.98-.93l-1.02,.03c-.87,.03-2.24-.09-2.85-1.42-.55-1.2-.14-2.77,1.52-3.53,.96-.44,1.67-.33,2.06-.22,.34,.1,.73,.29,1.09,.58l-.8,1.14Z" style="fill: #b2163a;"/>
        <path d="M68.11,10.51c.78,2.76-.69,5.46-3.52,6.26-2.82,.8-5.5-.73-6.28-3.5-.78-2.76,.69-5.46,3.52-6.26,2.82-.8,5.5,.73,6.28,3.5Zm-1.44,.41c-.59-2.09-2.45-3.15-4.46-2.58-2.02,.57-3.04,2.44-2.45,4.53,.59,2.09,2.45,3.15,4.46,2.58,2.02-.57,3.05-2.44,2.45-4.53Z" style="fill: #b2163a;"/>
        <path d="M78.74,4.35c1.36-.05,2.55,.05,3.67,.81,1.22,.85,1.96,2.24,2.02,3.86,.06,1.62-.56,3.05-1.81,4.01-1.11,.85-2.18,1.02-3.54,1.07l-2.02,.08-.37-9.76,2.05-.08Zm-.24,8.37l.64-.02c.73-.03,1.74-.12,2.57-.79,.65-.54,1.28-1.5,1.23-2.83-.05-1.29-.7-2.27-1.42-2.76-.87-.58-1.92-.6-2.63-.57l-.65,.02,.26,6.95Z" style="fill: #b2163a;"/>
        <path d="M89.94,4.52l-.75,9.74-1.49-.11,.75-9.74,1.49,.11Z" style="fill: #b2163a;"/>
        <path d="M101.09,6.3l-1.92,8.14,2.8,.66-.32,1.37-4.26-1,2.24-9.51,1.46,.34Z" style="fill: #b2163a;"/>
        <path d="M110.48,17.01l-3.91-1.47-1.84,1.83-1.51-.57,8.22-7.96,.68,11.31-1.51-.57-.13-2.57Zm-.07-1.53l-.19-3.61-2.59,2.56,2.77,1.05Z" style="fill: #b2163a;"/>
        <path d="M118.75,12.63l-.89,7.28,5.67-4.66,1.41,.77-8.81,7.03,1.2-11.2,1.41,.77Z" style="fill: #b2163a;"/>
        <path d="M132.51,27.71c-1.76,2.27-4.82,2.68-7.13,.89-2.32-1.8-2.67-4.85-.91-7.12,1.76-2.27,4.82-2.68,7.13-.89,2.32,1.8,2.67,4.85,.91,7.12Zm-1.18-.92c1.33-1.71,1.08-3.83-.57-5.12-1.66-1.28-3.77-1-5.11,.72-1.33,1.71-1.09,3.83,.57,5.12,1.66,1.28,3.77,1,5.11-.71Z" style="fill: #b2163a;"/>
        <path d="M139.92,28.29c.81,.86,1.23,1.52,1.35,2.27,.21,1.27-.58,2.13-.89,2.42-1.03,.96-2.37,1.03-3.47,.28l-.96,5.08-1.23-1.31,1-4.78-.18-.19-2.92,2.74-1.02-1.09,7.13-6.69,1.2,1.27Zm-3.44,2.89l.32,.34c.28,.3,1.46,1.49,2.59,.42,1.01-.94,.21-1.98-.29-2.52l-.35-.37-2.27,2.12Z" style="fill: #b2163a;"/>
        <path d="M142.83,43.71l-2.4-3.42-2.55,.48-.93-1.32,11.27-1.96-5.82,9.72-.93-1.32,1.34-2.19Zm.81-1.3l1.88-3.09-3.58,.66,1.7,2.42Z" style="fill: #b2163a;"/>
        <path d="M145.53,50.19l2.12,4.18-1.26,.63-3.22-6.35,9.65,.52-1.81-3.58,1.26-.63,2.91,5.75-9.65-.52Z" style="fill: #b2163a;"/>
        <path d="M157.12,55.69l-9.14,3.47-.53-1.4,9.14-3.47,.53,1.4Z" style="fill: #b2163a;"/>
        <path d="M156.24,70.73c-2.8,.67-5.44-.92-6.12-3.77-.68-2.85,.96-5.45,3.76-6.12,2.8-.66,5.44,.92,6.12,3.77,.68,2.85-.96,5.46-3.76,6.12Zm-.35-1.45c2.11-.5,3.25-2.31,2.77-4.35-.49-2.04-2.32-3.14-4.43-2.64-2.11,.5-3.25,2.31-2.76,4.35,.49,2.04,2.32,3.14,4.43,2.64Z" style="fill: #b2163a;"/>
        <path d="M151.85,74.77l10.43-.56-7.04,7.48,6.77-.37,.08,1.49-10.37,.56,7.04-7.48-6.82,.37-.08-1.49Z" style="fill: #b2163a;"/>
        <path d="M159.94,92.96l.37-3.88-2.47-.23-.36,3.76-1.4-.13,.36-3.76-3.07-.29-.37,3.88-1.4-.13,.51-5.37,9.74,.92-.51,5.37-1.4-.13Z" style="fill: #b2163a;"/>
        <path d="M158.87,104.63c-.17,.58-.46,1.36-1.1,1.91-.75,.64-1.76,.75-2.62,.51-.55-.16-1.35-.54-1.79-1.51-.42-.93-.27-1.81-.07-2.5l.19-.65-3.82-1.11,.42-1.43,9.39,2.72-.6,2.07Zm-4.07-1.86l-.19,.65c-.36,1.24,.07,2,.95,2.26,.52,.15,1.51,.21,1.99-1.42l.18-.63-2.93-.85Z" style="fill: #b2163a;"/>
        <path d="M153.17,115.9l1.53-3.58-2.28-.97-1.49,3.48-1.3-.55,1.49-3.48-2.83-1.21-1.53,3.58-1.3-.55,2.12-4.96,9,3.84-2.12,4.96-1.29-.55Z" style="fill: #b2163a;"/>
        <path d="M151.62,121.82c-.6,1.02-1.11,1.61-1.8,1.93-1.16,.56-2.21,.05-2.57-.17-1.21-.71-1.66-1.98-1.25-3.25l-5.15,.51,.92-1.55,4.87-.39,.13-.23-3.45-2.03,.76-1.29,8.44,4.95-.88,1.5Zm-3.74-2.48l-.24,.4c-.21,.35-1.02,1.82,.32,2.6,1.19,.7,1.96-.36,2.34-.99l.26-.44-2.68-1.57Z" style="fill: #b2163a;"/>
        <path d="M142.67,134.45l-4.34-3.99c-.39-.36-.87-.78-1.45-.91-.57-.12-1.39,.02-1.98,.65-.59,.64-.65,1.47-.49,2.02,.18,.56,.65,1.01,1.03,1.37l4.34,3.99-1.01,1.1-4.63-4.25c-.57-.53-1.16-1.28-1.25-2.38-.06-.75,.09-1.79,.99-2.77,.9-.98,1.92-1.22,2.68-1.22,1.11,0,1.91,.52,2.48,1.05l4.63,4.25-1.01,1.1Z" style="fill: #b2163a;"/>
        <path d="M129.08,134.42l6.43,8.22-10.17-1.49,4.17,5.33-1.18,.92-6.39-8.17,10.17,1.49-4.21-5.38,1.18-.92Z" style="fill: #b2163a;"/>
        <path d="M115.5,146.36l3.67-2-.19-2.58,1.42-.77,.69,11.41-9.03-6.86,1.42-.77,2.03,1.58Zm1.2,.95l2.86,2.21-.26-3.63-2.6,1.42Z" style="fill: #b2163a;"/>
        <path d="M102.66,157.63l3.74-1.12-.71-2.37-3.62,1.09-.41-1.35,3.62-1.09-.89-2.94-3.73,1.12-.41-1.35,5.17-1.55,2.82,9.35-5.17,1.55-.41-1.35Z" style="fill: #b2163a;"/>
        <path d="M97.47,160.17l-1.49-8.23-2.83,.51-.25-1.38,4.3-.78,1.75,9.61-1.47,.27Z" style="fill: #b2163a;"/>
        <path d="M85.46,160.07l3.89-.25-.16-2.47-3.78,.25-.09-1.4,3.78-.25-.2-3.07-3.89,.25-.09-1.4,5.39-.35,.64,9.75-5.39,.35-.09-1.4Z" style="fill: #b2163a;"/>
        <path d="M80.64,161.45l-2.25-6.98-3.19,6.61-1.61-.11,5.05-10.07,3.61,10.67-1.61-.11Z" style="fill: #b2163a;"/>
        <path d="M66.5,152.07l4.09,.86,1.53-2.09,1.58,.33-6.89,9.12-2.41-11.07,1.58,.33,.52,2.52Zm.3,1.5l.74,3.54,2.16-2.93-2.9-.61Z" style="fill: #b2163a;"/>
        <path d="M57.38,155.6l2.72-7.91,1.41,.48-2.72,7.91,2.12,.73-.46,1.33-5.66-1.94,.46-1.33,2.12,.73Z" style="fill: #b2163a;"/>
        <path d="M49.99,145.86l3.75,1.83,2-1.65,1.45,.71-8.92,7.15,.39-11.32,1.45,.71-.11,2.57Zm-.08,1.53l-.15,3.61,2.81-2.31-2.66-1.3Z" style="fill: #b2163a;"/>
        <path d="M36.78,134.49c.9,.12,1.71,.47,2.58,1.19,2.26,1.87,2.53,4.92,.67,7.15-1.84,2.21-4.9,2.52-7.16,.65-2.24-1.86-2.51-4.94-.67-7.15,1.15-1.37,2.47-1.72,3.28-1.83l-.21-2.22,1.42,1.18,.1,1.03Zm-1.17,1.43c-.71,.12-1.47,.42-2.26,1.36-1.39,1.67-1.21,3.79,.4,5.13,1.61,1.34,3.74,1.12,5.13-.55,1.39-1.67,1.21-3.79-.4-5.13-.56-.47-1.07-.68-1.54-.79l.31,3.25-1.43-1.19-.2-2.09Z" style="fill: #b2163a;"/>
        <path d="M24.89,135.62l4.48-3.83c.4-.34,.88-.77,1.08-1.33,.19-.55,.15-1.38-.42-2.04-.56-.66-1.38-.82-1.95-.72-.58,.11-1.08,.52-1.48,.86l-4.48,3.83-.97-1.13,4.78-4.09c.59-.5,1.41-.99,2.52-.96,.76,.03,1.77,.3,2.63,1.31,.87,1.01,.98,2.05,.9,2.8-.14,1.1-.75,1.83-1.34,2.34l-4.78,4.09-.97-1.13Z" style="fill: #b2163a;"/>
        <path d="M21.5,118.48l2.2,3.55,2.57-.33,.85,1.37-11.37,1.3,6.37-9.37,.85,1.37-1.47,2.11Zm-.88,1.25l-2.06,2.97,3.61-.46-1.56-2.52Z" style="fill: #b2163a;"/>
        <path d="M11.64,115.49l7.62-3.46-1.19-2.61,1.28-.58,1.81,3.97-8.9,4.04-.62-1.36Z" style="fill: #b2163a;"/>
        <path d="M8.72,108.16l9.23-3.24,.5,1.41-9.23,3.24-.5-1.41Z" style="fill: #b2163a;"/>
        <path d="M8.07,100.91l8.12-2.04,.37,1.45-8.13,2.04,.55,2.17-1.37,.34-1.46-5.8,1.37-.34,.55,2.17Z" style="fill: #b2163a;"/>
        <path d="M2.79,95.07l-1.03-1.14,1.78-2.25,.67,.63-1.42,2.77Zm9.42-5.64l.51,4.14,2.47,.77,.2,1.6-10.87-3.56,9.71-5.85,.2,1.6-2.22,1.31Zm-1.32,.77l-3.11,1.84,3.47,1.09-.36-2.94Z" style="fill: #b2163a;"/>
        <path d="M7.33,75.45c.16-1.12,1.2-1.9,2.32-1.75,1.12,.16,1.91,1.2,1.75,2.31-.16,1.12-1.2,1.9-2.32,1.75-1.12-.15-1.91-1.2-1.75-2.31Z" style="fill: #b2163a;"/>
      </g>
      <g>
        <path d="M36.98,90.55l.08-1.37,2.45-.32c-.3-3.12-.6-8.82-.66-11.08-1.13,2.41-3.62,8.95-4.8,12.8l-2.43,.02c-1.22-3.63-3.59-9.76-5.02-12.73,0,2.33-.26,8.67-.43,11.09l2.31,.29,.08,1.37-6.41,.05,.08-1.37,2.1-.32c.35-3.75,.74-10.67,.75-12.54l-2.31-.26,.11-1.4,5.22-.04c1.42,2.92,3.89,8.68,5.27,12.7,1.07-3.39,3.59-9.55,5.11-12.78l5.2-.04,.1,1.4-2.35,.3c.02,3.12,.44,9.01,.86,12.53l2.24,.29,.1,1.37-7.65,.06Z"/>
        <path d="M55.88,90.41l.08-1.4,2.19-.3c-.43-1.07-.88-2.07-1.43-3.58l-5.41,.04c-.39,1.17-1.01,2.62-1.4,3.6l2.22,.26,.1,1.4-6.11,.04,.11-1.37,1.58-.31c1.61-3.51,3.96-9.77,5.4-14.25l2.54-.02c1.05,3.3,4.04,10.76,5.68,14.17l1.64,.29,.08,1.37-7.28,.05Zm-1.85-13.19h-.12c-.43,1.52-1.57,4.97-2.1,6.44l4.41-.03c-.79-2.16-1.69-4.79-2.19-6.41Z"/>
        <path d="M78.04,90.95l-6.49-7.62-1.24-.18,.5-1.52,1.75,.2c1.02-.22,2.09-1.53,2.08-3.21-.01-1.89-1.21-2.76-3.01-2.75-.49,0-1.24,.06-1.77,.08l.09,12.67,2.1,.29,.1,1.37-7.28,.05,.11-1.38,2.17-.32-.09-12.53-2.27-.29,.11-1.37,3.78-.03s3.26-.16,3.99-.17c2.94-.02,4.84,1.5,4.86,4.2,.02,2.19-1.42,3.71-3,4.07v.07s5.66,7.74,5.66,7.74l-2.14,.6Z"/>
        <path d="M94.4,90.27c-.49-.02-2.08-.12-2.82-.12l-9.54,.07,.08-1.37,2.14-.32-.09-12.53-2.26-.29,.11-1.37,11.62-.08-.25,3.87-1.42,.24-.28-2.49-4.67,.03,.04,5.31,4.29-.03,.52-1.96,1.38,.08-.17,2.66,.21,2.86-1.38,.1-.55-2.16-4.29,.03,.04,5.78,5.34-.04,.56-2.89,1.4,.15v4.47Z"/>
        <path d="M109.04,90.17c-.42-.02-2.01-.13-2.68-.12l-9.28,.07,.08-1.37,2.14-.32-.09-12.53-2.29-.29,.13-1.38,7.49-.05-.08,1.37-2.38,.32,.09,12.55,4.87-.04,.6-3.48,1.38,.15v5.1Z"/>
        <path d="M123.28,90.06c-.42-.02-2.01-.13-2.68-.12l-9.28,.07,.08-1.37,2.14-.32-.09-12.53-2.29-.29,.13-1.38,7.49-.05-.08,1.37-2.38,.32,.09,12.55,4.87-.04,.6-3.48,1.38,.15v5.1Z"/>
        <path d="M134.66,89.84l.08-1.4,2.19-.3c-.43-1.07-.88-2.07-1.43-3.58l-5.41,.04c-.39,1.17-1.01,2.62-1.4,3.6l2.22,.26,.1,1.4-6.11,.04,.11-1.37,1.58-.31c1.61-3.51,3.96-9.77,5.4-14.25l2.54-.02c1.05,3.3,4.04,10.76,5.68,14.17l1.64,.29,.08,1.37-7.28,.05Zm-1.85-13.19h-.12c-.43,1.52-1.57,4.97-2.1,6.44l4.41-.03c-.79-2.16-1.69-4.79-2.19-6.41Z"/>
      </g>
    </g>
  </g>
</svg>