<?xml version="1.0" encoding="UTF-8"?>
<svg id="uuid-ea76f386-ad68-40be-82d3-64b7438dfe13" data-name="Livello 2" xmlns="http://www.w3.org/2000/svg" viewBox="0 0 345.6 49.11">
  <g id="uuid-73cd818a-c20e-402f-a68a-6862f41dae2f" data-name="Livello 1">
    <g>
      <path d="M42.8,47.96l.24-3.97,7.06-.93c-.87-9.01-1.74-25.49-1.92-32.02-3.25,6.95-10.44,25.85-13.86,36.98l-7,.05c-3.51-10.47-10.37-28.19-14.47-36.77-.02,6.73-.76,25.04-1.25,32.04l6.67,.83,.23,3.97-18.51,.14,.24-3.97,6.05-.92c1-10.84,2.13-30.84,2.16-36.22l-6.67-.76,.31-4.04,15.07-.11c4.1,8.45,11.22,25.09,15.21,36.7,3.09-9.78,10.36-27.6,14.74-36.92l15.01-.11,.3,4.03-6.79,.86c.07,9.02,1.27,26.03,2.49,36.19l6.47,.83,.3,3.97-22.07,.16Z"/>
      <path d="M97.35,47.56l.24-4.04,6.32-.85c-1.23-3.09-2.53-5.97-4.11-10.33l-15.61,.11c-1.12,3.37-2.91,7.56-4.03,10.39l6.4,.76,.3,4.04-17.63,.13,.31-3.97,4.57-.91c4.64-10.13,11.44-28.21,15.58-41.16l7.33-.05c3.03,9.53,11.67,31.07,16.38,40.93l4.72,.84,.23,3.97-21,.15Zm-5.33-38.12h-.34c-1.25,4.39-4.54,14.37-6.06,18.62l12.72-.09c-2.27-6.24-4.88-13.83-6.33-18.53Z"/>
      <path d="M161.27,49.11l-18.74-22-3.57-.51,1.45-4.38,5.05,.57c2.96-.63,6.02-4.42,5.99-9.26-.04-5.45-3.49-7.98-8.67-7.95-1.41,.01-3.56,.16-5.11,.24l.27,36.61,6.06,.83,.3,3.97-21,.15,.31-3.97,6.25-.92-.27-36.2-6.53-.83,.31-3.97,10.9-.08s9.42-.47,11.5-.49c8.48-.06,13.96,4.34,14.02,12.14,.05,6.33-4.09,10.73-8.66,11.77v.2s16.32,22.36,16.32,22.36l-6.18,1.73Z"/>
      <path d="M161.27,49.11l-18.74-22-3.57-.51,1.45-4.38,5.05,.57c2.96-.63,6.02-4.42,5.99-9.26-.04-5.45-3.49-7.98-8.67-7.95-1.41,.01-3.56,.16-5.11,.24l.27,36.61,6.06,.83,.3,3.97-21,.15,.31-3.97,6.25-.92-.27-36.2-6.53-.83,.31-3.97,10.9-.08s9.42-.47,11.5-.49c8.48-.06,13.96,4.34,14.02,12.14,.05,6.33-4.09,10.73-8.66,11.77v.2s16.32,22.36,16.32,22.36l-6.18,1.73Z"/>
      <path d="M208.47,47.15c-1.41-.06-5.99-.36-8.15-.34l-27.52,.2,.24-3.97,6.18-.92-.27-36.2-6.53-.83,.31-3.97,33.51-.25-.73,11.18-4.1,.7-.79-7.19-13.46,.1,.11,15.34,12.38-.09,1.51-5.66,3.97,.24-.48,7.68,.6,8.27-3.97,.3-1.59-6.25-12.38,.09,.12,16.69,15.41-.11,1.62-8.36,4.04,.44-.04,12.92Z"/>
      <path d="M250.7,46.84c-1.21-.06-5.79-.36-7.74-.35l-26.78,.2,.24-3.97,6.18-.92-.27-36.2-6.6-.83,.37-3.97,21.6-.16-.24,3.97-6.86,.93,.27,36.27,14.06-.1,1.74-10.04,3.97,.44,.04,14.74Z"/>
      <path d="M250.7,46.84c-1.21-.06-5.79-.36-7.74-.35l-26.78,.2,.24-3.97,6.18-.92-.27-36.2-6.6-.83,.37-3.97,21.6-.16-.24,3.97-6.86,.93,.27,36.27,14.06-.1,1.74-10.04,3.97,.44,.04,14.74Z"/>
      <path d="M291.79,46.54c-1.21-.06-5.79-.36-7.74-.35l-26.78,.2,.24-3.97,6.18-.92-.27-36.2-6.6-.83,.37-3.97,21.6-.16-.24,3.97-6.86,.93,.27,36.27,14.06-.1,1.74-10.04,3.97,.44,.04,14.74Z"/>
      <path d="M291.79,46.54c-1.21-.06-5.79-.36-7.74-.35l-26.78,.2,.24-3.97,6.18-.92-.27-36.2-6.6-.83,.37-3.97,21.6-.16-.24,3.97-6.86,.93,.27,36.27,14.06-.1,1.74-10.04,3.97,.44,.04,14.74Z"/>
      <path d="M324.6,45.89l.24-4.04,6.32-.85c-1.23-3.09-2.53-5.97-4.11-10.33l-15.61,.11c-1.12,3.37-2.91,7.56-4.03,10.39l6.4,.76,.3,4.04-17.63,.13,.31-3.97,4.57-.91c4.64-10.13,11.44-28.21,15.58-41.16l7.33-.05c3.03,9.53,11.67,31.07,16.38,40.93l4.72,.84,.23,3.97-21,.15Zm-5.33-38.12h-.34c-1.25,4.39-4.54,14.37-6.06,18.62l12.72-.09c-2.27-6.24-4.88-13.83-6.33-18.53Z"/>
    </g>
  </g>
</svg>