<?xml version="1.0" encoding="UTF-8"?>
<svg id="uuid-64ce5de5-7aae-4da2-b65b-68fc0b5de1b2" data-name="Livello 2" xmlns="http://www.w3.org/2000/svg" viewBox="0 0 19.89 59.59">
  <g id="uuid-b4c359a0-2b83-4925-be8d-e70c8c329dc5" data-name="Livello 1">
    <g>
      <path d="M8.37,59.59c-.23-.1-.45-.24-.68-.29C4.06,58.49,.38,55.25,.02,50.14c-.19-2.72,.73-5.13,2.54-7.17,.34-.39,.77-.69,1.16-1.03,0-.67,0-1.24,0-1.81,0-11.06,0-22.12,0-33.18,0-1.39,.24-2.69,.94-3.89C6.02,.71,8.91-.5,11.49,.19c2.7,.72,4.57,3.01,4.68,5.75,.02,.52,.01,1.04,.01,1.56,0,10.8,0,21.6,0,32.4v2.04c.19,.13,.58,.31,.86,.61,5.27,5.56,2.87,14.51-4.45,16.69-.28,.08-.54,.23-.81,.35h-3.43Zm-2.46-16.73c-4.91,3.72-4.38,8.98-1.72,12,2.88,3.26,7.99,3.45,11.16,.45,1.68-1.59,2.57-3.58,2.55-5.85-.03-2.79-1.47-4.93-3.69-6.56v-1.78c0-11.17,0-22.35,0-33.52,0-.73-.05-1.46-.19-2.17-.36-1.79-1.83-3.06-3.57-3.18-1.99-.14-3.65,.88-4.23,2.72-.23,.73-.28,1.54-.28,2.31-.02,11.28-.01,22.55-.01,33.83,0,.57,0,1.14,0,1.76Z" style="fill: #fff;"/>
      <path d="M8.05,44.14c0-4.38,0-8.7,0-13.03,0-.52-.04-1.05,.04-1.56,.16-.99,1.04-1.65,2-1.6,.89,.05,1.62,.74,1.73,1.7,.05,.41,.03,.83,.03,1.25,0,3.49,0,6.99,0,10.48,0,.88,0,1.77,0,2.7,1.6,.88,2.99,1.96,3.52,3.79,.34,1.17,.35,2.37-.06,3.54-.86,2.49-3.11,3.95-5.8,3.81-2.39-.13-4.42-1.87-5.07-4.37-.67-2.59,.52-4.89,3.59-6.71Z" style="fill: #fff;"/>
    </g>
  </g>
</svg>