<?xml version="1.0" encoding="UTF-8"?>
<svg id="uuid-397d2270-af5a-4e5f-bfe7-de87ec13c3ca" data-name="Livello 2" xmlns="http://www.w3.org/2000/svg" viewBox="0 0 60.85 59.48">
  <g id="uuid-93c06f75-e475-4f24-9f4e-913761f6b553" data-name="Livello 1">
    <g>
      <path d="M0,26.73c.19-.87,.4-1.73,.56-2.6C2.75,12.55,11.86,3.1,23.44,.73c10.7-2.2,20.08,.58,27.84,8.25,4.71,4.65,7.44,10.39,8.3,16.93,1.01,7.66-1.08,14.55-5.55,20.78-.47,.65-.96,1.28-1.59,2.13,1.36-.15,2.5-.25,3.63-.39,1.05-.13,2.1-.28,3.15-.46,.67-.12,1.18,.1,1.64,.56v.91c-.73,.81-1.78,.64-2.7,.78-2.55,.4-5.11,.69-7.68,1-.44,.05-.9,0-1.32,0-.58-.34-.67-.86-.73-1.43-.37-3.25-.78-6.5-1.18-9.83,.06-.1,.11-.32,.25-.45,.74-.71,1.61-.48,1.78,.52,.24,1.34,.4,2.69,.58,4.04,.16,1.2,.28,2.4,.44,3.72,.2-.12,.37-.18,.47-.29,3.49-4.07,5.87-8.7,6.68-14.01,.97-6.31-.28-12.26-3.55-17.71-4.59-7.65-11.4-12.24-20.25-13.44-8.12-1.1-15.47,1.04-21.77,6.36C7.01,12.8,3.85,18,2.64,24.26c-1.66,8.62,.28,16.42,5.9,23.21,4.06,4.91,9.3,8.02,15.56,9.36,1.48,.32,3.01,.38,4.51,.55,.65,.07,1.29,.14,1.86,.2q.51,.98-.12,1.82c-2.51,.23-5.03-.07-7.47-.74C11.16,55.46,3.79,47.96,.73,36.28c-.24-.92-.3-1.89-.47-2.83-.04-.23-.17-.44-.26-.67,0-2.02,0-4.04,0-6.05Z" style="fill: #fff;"/>
      <path d="M28.95,30.47c-.03-.48-.05-.73-.05-.97,0-5.18,0-10.37,0-15.55,0-.75,.03-1.43,.96-1.64,.79,.08,1.11,.58,1.13,1.33,.01,.35,0,.7,0,1.06,0,4.13,0,8.25,0,12.38v1.53c1.12,.31,2.18,.13,3.22,.16,1.11,.03,2.23,0,3.34,0h3.09q.72,.97,.05,1.89c-.35,.02-.75,.07-1.15,.07-3.13,.03-6.27,.07-9.4,.07-.37,0-.74-.2-1.18-.33Z" style="fill: #fff;"/>
      <path d="M29.87,4c1.45,.59,1.05,1.71,1.1,2.65,.04,.75-.15,1.39-1.14,1.6-.26-.17-.57-.38-.89-.59v-2.97c.28-.21,.59-.44,.93-.69Z" style="fill: #fff;"/>
      <path d="M12.52,11.31c1.25,.76,1.79,1.32,2.44,2.6-.25,.29-.55,.64-.86,1.01-1.38-.47-2.1-1.45-2.75-2.4,.11-.72,.38-1.14,1.16-1.21Z" style="fill: #fff;"/>
      <path d="M45.93,14.82c-1.11-.63-1.26-1.12-.53-1.92,.54-.59,1.15-1.11,1.67-1.6,1.49,.43,1.71,1.01,.86,2-.67,.77-1.14,1.13-2,1.53Z" style="fill: #fff;"/>
      <path d="M15.05,45.6c-.69,1.27-1.49,2.04-2.48,2.6q-.8-.28-1.25-1.08c.55-1.08,1.41-1.91,2.65-2.57,.36,.35,.69,.67,1.07,1.05Z" style="fill: #fff;"/>
      <path d="M29.79,51.25c1.24,.27,1.22,1.1,1.19,1.93-.03,.88,.23,1.89-1.01,2.23q-1.16-.54-1.02-3.5c.25-.19,.58-.46,.84-.66Z" style="fill: #fff;"/>
      <path d="M4.62,30.63c-.53-.58-.54-1.08-.11-1.66,1.03-.4,2.13-.13,3.17-.16,.67,.62,.7,1.17,.08,1.81h-3.15Z" style="fill: #fff;"/>
      <path d="M55.19,30.65h-3.09c-.59-.59-.6-1.11-.11-1.7,1.04-.34,2.12-.13,3.15-.12,.65,.61,.7,1.15,.05,1.83Z" style="fill: #fff;"/>
    </g>
  </g>
</svg>