<?xml version="1.0" encoding="UTF-8"?>
<svg id="uuid-c98984c4-05c7-435e-8bc5-3bb681b83a69" data-name="Livello 2" xmlns="http://www.w3.org/2000/svg" xmlns:xlink="http://www.w3.org/1999/xlink" viewBox="0 0 35.5 35.15">
  <defs>
    <clipPath id="uuid-85855967-5481-4b6c-90a2-2982d3310f22">
      <path d="M34.18,.45c.81,.75,.88,1.53,.9,2.39,.01,.75-.16,1.49,.3,2.25,.26,.43,.04,1.17-.02,1.77-.03,.33-.28,.65-.27,.97,.03,1.95-.28,3.82-.68,5.74-.79,3.82-2.45,8-4.56,10.9-1.25,1.71-3.09,3.42-4.86,4.91-1.3,1.09-2.75,1.88-4.21,2.65-1.03,.55-2.21,.83-3.31,1.25-1.11,.43-2.27,.69-3.4,1.05-1.04,.33-2.2,.37-3.31,.38-1.07,.02-2.03,.56-3.14,.41-1.02-.14-2.07-.11-3.1-.01-1.15,.11-2.19-.39-3.29-.46-.71-.65-.86-1.46-.88-2.39-.03-1.17-.25-2.33-.34-3.5-.07-.94,.51-1.78,.39-2.77-.1-.85-.29-1.79,.33-2.58-.05-1.82,.52-3.52,1.1-5.2,1.16-3.35,2.62-6.57,5.07-9.21,2.33-2.52,4.61-4.58,8.37-6.16,2.25-.94,4.48-1.97,6.99-2.08,.74-.67,1.74-.1,2.52-.51,.81-.42,1.65-.15,2.47-.2,.91-.06,1.83-.01,2.74-.01,.85,0,1.71-.03,2.56,.02,.32,.02,.62,.26,.95,.34,.27,.07,.56,.05,.69,.06Z" style="fill: none;"/>
    </clipPath>
  </defs>
  <g id="uuid-67c4003a-3ded-4c26-b01e-6741c7ac5ad9" data-name="Livello 1">
    <g style="clip-path: url(#uuid-85855967-5481-4b6c-90a2-2982d3310f22);">
      <g>
        <path d="M-9.53,56.42c-.22-.14-.42-.26-.63-.4-.13,.08-.27,.12-.32,.21-.2,.38-.52,.5-.93,.58-1.44,.27-2.89,.55-4.2,1.23-2.14,1.12-3.42,2.84-3.44,5.37,0,.92,.17,1.8,.43,2.66,.18,.61,.53,1.13,.99,1.59,.38,.39,.79,.78,1.05,1.24,.77,1.38,.56,2.6-.51,3.68-.52,.52-1.01,1.05-1.84,1.29-.26,0-.63,0-1.05,0-.07-.09-.15-.2-.27-.36-.12,.05-.24,.1-.43,.18-.91-.41-1.54-1.22-2.18-1.98-.54-.63-.99-1.36-1.4-2.09-.72-1.29-1.15-2.69-1.41-4.15-.17-.94-.17-1.88-.15-2.81,.03-1.73,.43-3.38,1.01-5,.5-1.41,1.32-2.63,2.3-3.72,.59-.67,1.32-1.26,2.1-1.7,1.8-1.04,3.73-1.74,5.8-2.08,1.45-.24,2.91-.42,4.38-.57,.66-.07,1.32-.15,1.98-.15,.15,0,.29,.04,.39,.06,.25-.09,.47-.22,.7-.23,1.61-.11,3.21-.24,4.83-.2,.66,.02,1.34-.24,1.98-.14,1.28,.2,2.56,0,3.82,.19,1.65,.24,3.28,.11,4.92,.15,1.65,.04,3.3,.01,4.96,.01h.91c.02,.33,.04,.58,.06,1.03,.24-.23,.34-.32,.43-.4-.04-.16-.08-.29-.12-.42,.47-.21,1.53-.28,2.06-.16,.29,.06,.59,.11,.89,.14,.81,.06,1.63-.06,2.45,.16,.53,.14,1.16,.13,1.67-.4-.01-.15-.03-.34-.05-.55-1.81-.48-3.57-.94-5.32-1.42-1.87-.51-3.74-1.04-5.61-1.56-.78-.22-1.56-.42-2.34-.63-.89-.25-1.78-.5-2.67-.75-1.26-.36-2.53-.71-3.87-1.09-.54-.61-.55-1.43-.49-2.25,.04-.64,.5-1.05,.97-1.37,.74-.51,1.53-.94,2.33-1.35,.39-.2,.85-.31,1.28-.36,2.43-.26,4.71-1.08,7.01-1.84,2.32-.77,4.67-1.47,7-2.21,.22-.07,.44-.17,.66-.26-.02-.33-.19-.46-.47-.47-.12,0-.24,0-.37,0-6.78-.07-13.56-.14-20.34-.21-.67,0-1.35-.03-2.02,0-.57,.03-1.14,.18-1.7,.16-2-.08-3.61-.82-4.47-2.77-.05-.11-.11-.22-.17-.32,0-.43-.08-.87,.01-1.28,.26-1.22,1.05-2.02,2.23-2.39,.51-.16,1.07-.2,1.61-.2,7.31,0,14.63,0,21.94,.02,.34,0,.67,0,1.03,0,.09-.11,.19-.21,.32-.37h.87c4.28,0,8.57,.08,12.85-.02,1.82-.04,3.64-.14,5.47-.14,.3,0,.61,0,.93,0,.07,.19,.13,.35,.22,.59,.14-.14,.26-.25,.42-.4,.18,0,.42,.01,.66,0,1.12-.06,2.24-.11,3.36-.18,.59-.04,1.1,.06,1.52,.55,.39,.46,.89,.83,1.26,1.3,.59,.76,.7,1.69,.54,2.6-.15,.84-.66,1.53-1.19,2.19-.84,1.03-1.98,1.5-3.23,1.82-2.29,.57-4.56,1.2-6.84,1.78-2.46,.62-4.88,1.39-7.27,2.24-.9,.32-1.79,.65-2.69,.99-1.05,.4-2.14,.52-3.24,.68-.61,.09-1.19,.36-1.75,.54-.16,.31-.28,.55-.38,.75,.08,.61,.5,.89,.93,1.06,2.8,1.13,5.65,2.11,8.59,2.81,1.86,.44,3.68,1.02,5.52,1.53,1.44,.4,2.89,.77,4.31,1.22,.97,.31,1.89,.74,2.84,1.1,.65,.25,1.32,.42,2.03,.37,.53-.04,.97,.18,1.25,.61,.57,.88,1.13,1.75,1.41,2.79,.44,1.61-.74,3.44-2.38,3.58-.44,.04-.87,.03-1.31,0-1.18-.05-2.34,.12-3.5,.33-.33,.06-.67,.02-1.01,.02-.86,0-1.71-.03-2.57,0-.75,.03-1.52,.24-2.25,.15-1.4-.18-2.83-.09-4.21-.47-.92-.25-1.88-.13-2.82,.02-.18,.03-.36,.11-.53,.09-.65-.09-1.28,.14-1.94,.03-.66-.1-1.34-.03-2.02-.03-.67,0-1.35,.07-2.02-.01-3.07-.38-6.17-.28-9.23-.13-3.48,.17-6.96,.14-10.43,.07-2.07-.04-4.14-.17-6.2-.12-.95,.02-1.92,.07-2.86,.32-.23,.06-.49,0-.8,0ZM23.51,36.64c0-.21,0-.42,0-.59-.4-.25-.77-.48-1.13-.71q-.43,.21-.45,.71c.28,.19,.57,.38,.84,.56,.28,0,.52,0,.76,0,.02,.18,.05,.37,.09,.7,.23-.25,.35-.39,.48-.53-.12-.13-.2-.22-.28-.3-.11,.06-.22,.11-.32,.16ZM-19.66,70.96c.23-.04,.42-.07,.61-.11,.03-.38-.08-.62-.42-.63-.15,0-.31,.13-.46,.2,.09,.18,.16,.31,.27,.53Zm53.62-21.61c.33-.17,.52-.36,.35-.71-.06-.11-.2-.18-.38-.34-.12,.15-.22,.26-.32,.39,.12,.23,.23,.43,.35,.66Zm-.74-21.82c.17,.44,.38,.54,.75,.39-.01-.22-.03-.41-.05-.75-.3,.15-.5,.26-.71,.37Zm-25.06,10.44c.44,.5,.62,.58,.89,.31-.07-.16-.16-.36-.23-.52-.28,.09-.47,.15-.66,.21Zm-23.58,13.93c-.28,.14-.55,.28-.81,.41q.47,.35,1.02-.25c-.07-.05-.14-.11-.2-.16Zm27.61-11.26c.27-.25,.38-.34,.51-.46-.23-.21-.44-.39-.65-.58-.04,.02-.08,.05-.13,.07,.07,.26,.15,.53,.27,.96Zm14.83,8.54c.44-.16,.66-.34,.77-.81-.27,.08-.5,.08-.61,.19-.11,.11-.1,.34-.16,.62Zm-14.05,2.21c-.12-.23-.22-.42-.31-.61-.22,.13-.37,.22-.51,.3,.15,.35,.34,.48,.82,.3Zm3.52-12.24c.1-.33,.17-.53,.22-.74,0-.03-.12-.09-.2-.16-.16,.18-.31,.34-.47,.51,.11,.1,.2,.17,.46,.38Zm-9.82,4.51c.14,.18,.27,.34,.42,.54,.15-.21,.23-.32,.34-.47-.18-.14-.31-.24-.44-.34-.11,.1-.18,.16-.32,.27Zm28.4-16.36c-.3-.22-.43-.32-.57-.42-.25,.33-.14,.53,.16,.74,.1-.08,.21-.16,.41-.32Zm-2.9,2.21c.05,.06,.1,.12,.15,.18,.18-.16,.36-.31,.59-.5-.46-.16-.66,0-.73,.32Zm-4.78,23.33c.18-.11,.3-.18,.46-.28-.24-.17-.35-.25-.45-.32-.16,.1-.27,.17-.41,.25,.19,.17,.28,.24,.41,.35Zm6.26-21.15c-.07-.25-.12-.41-.19-.66-.19,.22-.3,.34-.48,.55,.26,.04,.41,.07,.67,.11ZM5.39,39.71c-.15-.16-.23-.24-.33-.35-.15,.16-.28,.31-.41,.45,.02,.04,.04,.07,.06,.11,.2-.07,.41-.13,.67-.22Zm3.98,3.02c-.21-.01-.43-.03-.7-.05,.22,.36,.42,.46,.7,.05Zm10.31-2.87c.06,.03,.12,.06,.17,.1,.11-.1,.23-.2,.37-.32-.17-.12-.29-.2-.47-.32-.03,.24-.05,.4-.07,.55Zm-28.29,15.23c0-.06,.02-.13,.03-.19-.16-.09-.32-.17-.56-.3,.02,.24,.04,.38,.06,.55,.2-.03,.34-.04,.48-.06Zm26.67-.02c.2,.3,.39,.39,.56,0h-.56Zm-37.21,4.64c.3-.22,.37-.42-.04-.56,.02,.23,.03,.39,.04,.56Zm45.78-6.83c.08-.28,.13-.44,.17-.59-.04-.02-.09-.05-.13-.07-.12,.1-.23,.19-.38,.31,.1,.1,.16,.16,.34,.35Zm16.27-24.11c-.29,.19-.37,.37,0,.58v-.58Zm1.33,1.42c.22,.07,.38,.13,.53,.18,.02-.04,.05-.08,.07-.12-.09-.12-.19-.25-.32-.42-.09,.11-.14,.18-.28,.37Zm-31.96,11.32c.24,.02,.4,.03,.7,.05-.25-.18-.37-.28-.51-.38-.06,.1-.09,.14-.2,.33Zm17.69-8.77s-.08-.07-.11-.1c-.13,.08-.27,.16-.43,.25,.09,.1,.15,.17,.25,.27,.12-.16,.21-.29,.3-.41Zm-.11,14c.01-.45-.18-.36-.5-.27,.24,.13,.37,.2,.5,.27Zm.83-18.79c.25,.14,.33,.21,.38,.2,.06-.01,.09-.11,.14-.17-.06-.05-.12-.12-.19-.13-.08,0-.16,.05-.33,.1ZM5.88,51.47l-.13,.15c.15,.07,.3,.14,.45,.21,.02-.03,.04-.07,.05-.1-.13-.09-.25-.18-.38-.26Zm9.96,3.11c-.12-.13-.19-.22-.28-.33-.09,.11-.16,.19-.27,.33h.55Zm-9.73,.53c.25,.14,.33,.21,.38,.2,.06-.01,.09-.11,.14-.17-.06-.05-.12-.12-.19-.13-.08,0-.16,.05-.33,.1Zm-.86-3.26c-.23,.04-.34,.03-.37,.07-.04,.05,0,.15,0,.38,.15-.18,.21-.25,.38-.45Zm31.7-2.3l.11,.11c.08-.08,.16-.16,.24-.23-.04-.04-.07-.08-.11-.11-.08,.08-.16,.16-.23,.24Zm-15.87-2.84c.23-.04,.34-.03,.37-.07,.04-.05,0-.15,0-.38-.15,.18-.21,.25-.38,.45Z" style="fill: #a46464;"/>
        <path d="M56.19,17.46c.25-.67,.63-1.21,1.15-1.65,1.09-.91,1.63-2.14,1.94-3.48,.15-.64-.13-1.25-.25-1.87-.26-1.34-1.04-2.41-1.91-3.44,.17-.23,.34-.45,.53-.71-.14-.04-.24-.08-.37-.12-.18,.21-.35,.4-.54,.62-1.05-.87-2.25-1.31-3.51-1.61-.47-.11-.94-.23-1.41-.27-1.17-.09-2.33-.29-3.5-.43-1.44-.17-2.86-.13-4.28-.13-16-.03-32.01-.05-48.01-.06-.79,0-1.55-.14-2.3-.37-.56-.18-.89-.58-1.11-1.12-.33-.82-.54-1.7-.51-2.54,.07-1.62,.97-2.8,2.46-3.48,.32-.15,.67-.24,1.03-.37,.08,.04,.19,.09,.29,.14,.06-.02,.12-.02,.17-.05,.97-.59,2.09-.72,3.14-1.01,1.41-.39,2.82-.78,4.13-1.45,1.11-.56,2.31-.8,3.49-1.12,.86-.23,1.75-.36,2.63-.58,.61-.15,1.2-.38,1.8-.53,.56-.14,1.06-.52,1.68-.43,.86-.58,1.88-.73,2.84-1.05,1.78-.61,3.56-1.21,5.33-1.85,.49-.18,1.08-.24,1.38-.79-.06-.13-.12-.26-.2-.43-.37-.03-.73-.02-1.13,.08-.99,.25-1.98,.51-3.03,.43-.26-.02-.53,.09-.8,.11-.33,.03-.7,.13-.99,.03-.54-.2-1.08-.13-1.62-.15-1.76-.07-3.52-.13-5.29-.19-.15,0-.3-.06-.44-.07-.5-.01-1.01-.03-1.51-.02-.26,0-.53,.06-.8,.1-.08-.22-.14-.38-.24-.65-.21,.22-.39,.4-.57,.59h-.58c.03-.23,.05-.42,.09-.73-.07-.08-.22-.23-.35-.36-.76,.37-1.44,.7-2.21,1.07-1.07,.07-2.25,.21-3.43,.21-1.36,0-2.72-.13-4.14-.21-.05-.21-.1-.43-.15-.68-.1,.03-.22,.02-.26,.08-.12,.17-.2,.35-.31,.56-.78-.23-1.45-.75-2.04-1.31-.81-.76-.77-1.82-.53-2.81,.34-1.4,1.23-2.31,2.64-2.68,.14-.04,.29-.1,.44-.1,1.01,0,2.04-.14,3.02,.03,1.28,.22,2.56,.22,3.82,.13,4.12-.31,8.25,.07,12.35-.18,3.18-.2,6.34-.07,9.51-.12,3.15-.05,6.3,0,9.46,0,.29,0,.59,.07,.99,.12,.02-.03,.1-.14,.21-.28,1.75,0,3.51,0,5.33,0,.12,.53,.01,1.18,.76,1.5-.06-.53-.11-.98-.16-1.52,.3,0,.52-.05,.71,0,.77,.24,1.57,.1,2.35,.2,.67,.08,1.34,.29,1.99,.5,.83,.28,1.43,.84,1.78,1.75-.13,.04-.26,.07-.37,.13-.12,.07-.23,.16-.47,.33,.39,.12,.66,.2,.94,.28,.46,1.97-.87,3.62-2.56,4.34-2.54,1.08-5.23,1.64-7.87,2.4-1.06,.31-2.06,.81-3.1,1.17-1.75,.6-3.51,1.17-5.27,1.73-1.25,.4-2.51,.76-3.77,1.12-1.49,.43-2.99,.83-4.48,1.25-.83,.24-1.66,.47-2.49,.73-.51,.16-.54,.24-.62,.92,.34,0,.67,0,.99,0,9.09,.01,18.18-.01,27.27,.06,1.39,.01,2.79,.1,4.18,.17,1.17,.06,2.34,.19,3.5,.37,2.4,.38,4.78,.91,6.89,2.19,.87,.53,1.77,1.07,2.47,1.79,1.23,1.28,2.12,2.8,2.72,4.51,.79,2.22,.91,4.51,.76,6.81-.06,.97-.37,1.95-.73,2.86-.63,1.6-1.44,3.11-2.7,4.33-.37,.36-.73,.74-1.1,1.1-.97,.93-2.59,.95-3.52,0-.52-.54-.98-1.15-1.38-1.78-.18-.28-.21-.68-.25-1.04-.04-.36,0-.73-.01-1.07ZM11.14-14.78c.04-.6-.21-.83-.65-.93-.2-.04-.41-.09-.59-.19-.43-.24-.86-.23-1.39-.08-.03,.24-.07,.48-.09,.64,.82,.94,1.77,.45,2.72,.56Zm9.93,6.86c.23,.25,.46,.49,.63,.68,.74,.02,.68-.54,.93-.95-.19-.21-.37-.4-.54-.59-.48,.21-.94,.22-1.02,.87Zm-5.35-9.44c-.52,.37-1.23,.39-1.25,1.17,.15,.09,.3,.17,.47,.27,.34-.27,.69-.54,1.06-.83-.1-.23-.17-.39-.28-.62ZM-5.8-1.83c.38,.19,.68,.35,1.05,.54,.15-.34,.26-.6,.36-.84-.65-.52-.75-.5-1.42,.29ZM60.75,10.67c-.24,.08-.37,.04-.58-.12-.07-.05-.19-.03-.28-.04-.03,.05-.06,.09-.08,.14,.3,.31,.61,.62,.87,.89,.42,.03,.76,.05,.82-.38-.25-.17-.48-.32-.74-.49ZM23.86-19.33c-.05,.38-.09,.68,.38,.91,.15-.06,.43-.1,.6-.26,.2-.19,.09-.44-.18-.65-.22,0-.48,0-.8,0ZM19.88,3.09c-.08,.3-.16,.6,.22,.84,.2-.13,.4-.27,.63-.42-.27-.25-.42-.56-.85-.42Zm6.5-10.48c.14,.45,.34,.59,.73,.44,0-.2,0-.4,0-.61-.26,.06-.48,.11-.73,.16Zm-.32-11.34c.26,.33,.51,.39,.78,.1,.06-.06,.07-.15,.11-.25-.16-.09-.31-.18-.48-.27-.14,.14-.27,.29-.41,.43Zm-1.43,10.37c.34-.05,.5-.2,.48-.48-.02-.26-.18-.41-.48-.39,0,.31,0,.58,0,.88Zm13.44-9.77c-.25,.1-.45,.18-.66,.26,.13,.22,.22,.37,.32,.55,.31-.13,.47-.31,.34-.81ZM13.18,.52c.16,.37,.31,.69,.5,1.14q.08-.96-.5-1.14Zm29.34-12.65c.17-.15,.31-.28,.48-.44-.18-.16-.31-.27-.45-.39-.13,.12-.22,.2-.31,.28,.09,.17,.17,.32,.28,.54Zm16.31,28.8c0,.27,0,.5,0,.76,.19-.02,.3-.03,.41-.04,.14-.39,0-.59-.41-.71ZM16.57-4.13c0,.26,0,.49,0,.72,.05,.01,.09,.03,.14,.04,.12-.2,.24-.41,.39-.67-.21-.03-.34-.06-.53-.09ZM-.61,2.47c.13-.23,.24-.44,.38-.69h-.46c-.07,.18-.13,.33-.19,.47,.1,.08,.17,.13,.28,.22ZM64.55,14.87c.03-.07,.07-.14,.1-.2-.13-.13-.27-.25-.42-.4-.13,.14-.22,.23-.4,.42,.31,.08,.51,.13,.71,.18ZM33.87,2.72c.09-.39-.08-.59-.36-.8-.19,.44-.05,.65,.36,.8Zm-11.61-13.54v.75c.22-.19,.34-.28,.48-.41-.17-.12-.28-.2-.48-.34ZM11.15-1.95c-.06,.06-.12,.11-.18,.17,.15,.13,.31,.26,.48,.41,.1-.12,.17-.21,.29-.35-.23-.09-.41-.16-.59-.24Zm35.24-15.83c-.11-.1-.22-.2-.35-.32-.14,.13-.24,.22-.36,.33,.11,.1,.2,.17,.27,.23,.16-.09,.29-.16,.44-.24ZM36.19,2.99q-.43-.24-.52,.29c.18-.1,.31-.17,.52-.29Zm6.63-4.2c-.09,.23-.16,.38-.22,.54,.04,.03,.08,.06,.11,.08,.13-.09,.26-.17,.44-.29-.11-.11-.19-.19-.33-.33Zm2.22,.03c.07,0,.14,0,.2,0,.07-.19,.2-.39-.2-.54,0,.22,0,.39,0,.55ZM17.13-13.97c-.02,.28-.03,.43-.05,.58,.04,0,.08,.02,.12,.03,.07-.13,.14-.26,.19-.37-.08-.07-.1-.09-.27-.24ZM39.47,.99c-.05-.13-.07-.21-.12-.35-.15,.11-.28,.2-.53,.39,.3-.02,.46-.03,.65-.04ZM-1.57,.82c-.12,.13-.24,.22-.22,.25,.04,.1,.14,.19,.23,.3,.11-.13,.18-.2,.24-.28-.1-.11-.16-.17-.25-.27Zm29.36,3.49c.11-.15,.19-.27,.28-.39-.03-.05-.07-.09-.1-.14-.15,.05-.3,.11-.48,.17,.08,.1,.1,.12,.3,.35ZM3.72-17.48c-.02,.28-.03,.43-.05,.58,.04,0,.08,.02,.12,.03,.07-.13,.14-.26,.19-.37-.08-.07-.1-.09-.27-.24ZM23.85,1.37c-.12-.13-.19-.22-.28-.33-.09,.11-.16,.19-.27,.33h.55ZM53.48-.26s.08-.08,.12-.12c-.09-.07-.17-.13-.26-.2-.02,.03-.05,.05-.07,.08,.07,.08,.14,.16,.21,.24Zm-2.02-.19s.08-.08,.12-.12c-.09-.07-.17-.13-.26-.2-.02,.03-.05,.05-.07,.08,.07,.08,.14,.16,.21,.23Z" style="fill: #a46464;"/>
        <path d="M-9.42-.16c-.23-.06-.46-.11-.69-.18-1.05-.36-2.07-.8-3.23-.41-.44,.15-.97,0-1.46,.03-1.09,.05-2.18,.12-3.26,.19-.16-.2-.31-.38-.52-.63-.12,.22-.21,.38-.33,.61-.91-.05-1.87,.18-2.83-.15-.16-.06-.36-.01-.55-.02-.91-.05-1.82,.11-2.72-.17-.25-.08-.55-.05-.82,0-.68,.1-1.35,.29-2.03,.34-1.61,.1-2.95-.48-3.96-1.78-.5-.65-.64-1.44-.7-2.19-.05-.56,.17-1.2,.45-1.71,.27-.48,.76-.81,1.37-.96,1.34-.33,2.64-.76,4.06-.72,.72,.02,1.38,.2,2.02,.44,.48,.18,.86,.12,1.3-.05,.53-.21,1.07-.37,1.58-.54,.19,.1,.35,.18,.43,.22,.06,.2,.1,.34,.19,.64,.13-.3,.2-.46,.3-.67,.67,.03,1.41,0,2.17,.15,.88,.19,1.82,.06,2.7,.24,1.43,.29,2.86,.06,4.36,.2,.13,.09,.32,.23,.55,.39,.22-.13,.42-.25,.68-.42,.26,0,.6,0,.93,0,8.42,0,16.83,.03,25.25,.01,.92,0,1.85-.19,2.77-.33,1.86-.27,4.04,.66,4.48,2.83,.26,1.29,.19,1.95-.5,3.21-.16-.06-.32-.11-.51-.18-.08,.09-.25,.22-.23,.26,.24,.53-.08,.56-.48,.68-.51,.15-1.01,.16-1.53,.16-2.97,0-5.94-.03-8.91,0-1.89,.02-3.78,.13-5.67,.16-.72,0-1.44-.15-2.16-.17C1.73-.74,.64-.11-.13,.98c-.31,.43-.41,1.06-.45,1.62-.07,.85-.05,1.71,0,2.57,.04,.76,.33,1.41,1.08,1.74,1.08,.48,2.19,.83,3.38,.84,4.31,.02,8.63-.11,12.94,.06,3.08,.12,6.16,.01,9.23,.19,1.33,.08,2.7,.1,4.02,.5,.43,.13,.9,.11,1.33,.22,.29,.08,.56,.27,.82,.46,.28,.01,.54-.1,.91,.02,1.43,.45,2.65,1.22,3.86,2.08,1.49,1.07,2.56,2.49,3.36,4.09,.72,1.44,1.29,2.97,1.32,4.64,0,.29,.12,.58,.19,.94-.23,0-.43,0-.72,0,.08,.23,.13,.38,.19,.55,.15,.05,.32,.11,.52,.18-.09,.76-.15,1.51-.26,2.25-.19,1.32-.68,2.55-1.25,3.73-.49,1.02-1.19,1.93-1.84,2.86-.17,.25-.51,.38-.94,.7-.16,.48-.78,.75-1.41,1.02-.69-.04-1.42,.14-2.09-.33-1.12-.78-1.83-1.77-1.95-3.19-.09-1.07,.33-1.87,1.05-2.58,.98-.95,1.56-2.14,1.86-3.44,.17-.76,.07-1.57-.15-2.34-.09-.3-.31-.6,0-.8-.61-.65-1.15-1.21-1.68-1.78-.86-.94-1.93-1.53-3.13-1.91-.94-.3-1.88-.61-2.83-.86-.52-.14-1.07-.18-1.6-.23-.93-.08-1.87-.15-2.81-.19-.95-.03-1.9,0-2.85,0h-3.75c-.06-.2-.1-.34-.17-.59-.11,.22-.18,.36-.27,.53-1.67,.07-3.43,.2-5.19,.22-2.97,.03-5.94,.03-8.91,0-1.95-.02-3.9-.05-5.83-.21-.84-.07-1.69-.11-2.53-.17-.83-.05-1.66-.19-2.6-.31-.37,.36-.97,.43-1.56,.49-2.55,.26-5.11,.22-7.67,.16-1.3-.03-2.6-.13-3.91-.19-1.23-.05-2.44-.35-3.67-.41-.66-.03-1.33,.21-2,.32-.9,.14-1.8,.24-2.68-.11-.56-.23-.96-.65-1.18-1.2-.47-1.18-.55-2.4-.21-3.63,.23-.83,.81-1.34,1.61-1.54,.58-.14,1.19-.2,1.79-.2,3.12-.02,6.24-.02,9.36,0,1.49,.01,2.97,.11,4.46,.19,.33,.02,.65,.16,.97,.17,.57,.01,1.14,.03,1.71-.14,.54-.16,1.13-.14,1.7-.21,.15-.02,.32-.02,.43-.1,.97-.68,1.91-1.36,2.28-2.6,.37-1.22,.41-2.37-.27-3.47-.29-.47-.55-.99-1.09-1.27-.12-.07-.15-.31-.22-.47,.11-.01,.21-.03,.42-.05-.16-.06-.23-.11-.26-.09-.06,.04-.1,.11-.15,.17Zm-.56,9.36s.1-.04,.05-.02c.03-.06,0,0-.02,.05-.05,.02-.1,.04-.04,.02-.02,.05,0,0,.02-.04Zm42.44,3.18c.32,.17,.62,.34,.96,.53,.22,.34,.47,.71,.71,1.07,.14-.04,.24-.08,.37-.12,.18,.12,.37,.25,.64,.43,.14-.29,.25-.52,.36-.76,.13-.04,.27-.07,.37-.1,.09-.28,.16-.5,.23-.72-.25-.6-.24-1.29-.67-1.8-.46,.15-.88,.28-1.28,.44-.4,.16-.83,.32-.87,.85-.3-.08-.56-.33-.82,.18Zm3.38,19.2c.14-.34,.25-.59,.37-.87-.27-.13-.47-.23-.69-.33-.11,.22-.21,.4-.32,.62,.2,.18,.38,.35,.63,.58ZM1.15,9.25q-.37,.51,0,1.03,.36-.51,0-1.03ZM-29.41-2.41c-.37-.34-.57-.08-.78,.12-.05,.05-.09,.13-.14,.21,.13,.09,.25,.17,.39,.28,.19-.23,.36-.42,.52-.62Zm1.88-4.79c-.21-.16-.35-.26-.5-.38-.14,.18-.24,.31-.36,.46,.18,.14,.31,.24,.45,.35,.14-.14,.23-.25,.4-.43Zm9.9,3.13c-.14,.18-.27,.34-.4,.52,.11,.09,.22,.18,.36,.3,.15-.16,.26-.29,.39-.42-.12-.14-.2-.23-.34-.4ZM12.62-6.28c.14,.09,.27,.18,.43,.28,.11-.31,.2-.56-.11-.8-.12,.2-.21,.34-.32,.52Zm3.72-.29c-.06,0-.11,.01-.17,.02,0,.23,0,.46,0,.81,.22-.18,.33-.27,.44-.36-.1-.17-.19-.32-.27-.47ZM-27.75,10.61c-.04-.22-.07-.35-.12-.63-.21,.24-.34,.38-.56,.63,.3,0,.44,0,.68,0Zm19.04-1.9c-.06-.02-.12-.05-.18-.07-.12,.14-.24,.28-.43,.5,.27,.03,.43,.04,.63,.06-.01-.21-.02-.35-.02-.49Zm.11-10.53c.11-.12,.2-.22,.32-.36-.12-.13-.21-.24-.32-.36-.11,.12-.2,.22-.32,.36,.12,.13,.21,.24,.32,.36Zm-12.27,12.37c-.22,.23-.36,.37-.59,.61h.67c-.03-.19-.05-.33-.08-.61ZM1.03-5.07c-.03-.33-.04-.55-.07-.89-.22,.19-.33,.29-.47,.4,.18,.17,.31,.29,.54,.49Zm-11.89,1.39c0,.38-.15,.69,.17,.97,.34-.4,0-.62-.17-.97ZM25.15,10.28c-.22-.19-.36-.31-.6-.51,.03,.34,.05,.54,.08,.82,.19-.11,.31-.18,.53-.31Zm5.23,2.67c-.3,.37-.31,.37-.26,.6,0,.05,.13,.07,.26,.13v-.73Zm-62.29-3.05c.3-.03,.46-.05,.74-.08-.17-.21-.26-.31-.38-.45-.11,.16-.2,.29-.36,.54Zm9.4-1.69c-.21,.14-.34,.23-.52,.35,.18,.11,.32,.2,.52,.32,0-.26,0-.42,0-.67Zm63.55,12.02c-.21,.14-.34,.23-.52,.35,.18,.11,.32,.2,.52,.33,0-.26,0-.42,0-.67Zm.17,2.36v-.75c-.22,.19-.34,.28-.48,.41,.17,.12,.28,.2,.48,.34ZM1.3-6.78c-.12,.16-.21,.28-.28,.37,.1,.17,.16,.29,.24,.42,.16-.18,.22-.24,.28-.3-.07-.14-.13-.26-.24-.49ZM-5.77,.66c.18,.12,.31,.2,.52,.34,0-.26,0-.42,0-.68-.21,.13-.35,.22-.52,.33Zm-6.02,10.71l-.15-.19c-.19,.08-.38,.17-.62,.28,.16,.14,.24,.21,.26,.22,.2-.12,.36-.22,.51-.31Zm-19.45-.85c-.19-.09-.34-.16-.48-.23l-.09,.11c.08,.13,.16,.27,.26,.42,.11-.1,.19-.18,.32-.3ZM-8.6,.18c.3-.22,.37-.42-.04-.56,.02,.23,.03,.39,.04,.56ZM8.71,9.97c.09-.19,.16-.34,.23-.48-.04-.03-.07-.06-.11-.09-.13,.08-.26,.16-.42,.25,.1,.11,.18,.19,.3,.32ZM-12.37-3.78c.05,.05,.1,.09,.15,.14,.13-.09,.25-.18,.4-.29-.12-.1-.2-.18-.31-.28-.09,.16-.17,.3-.24,.43Zm17.3-.1c-.34-.23-.41,0-.57,.15,.11,.11,.18,.17,.27,.25,.1-.14,.19-.26,.3-.4ZM40.39,21.25c-.1-.13-.19-.25-.29-.38-.03,.01-.06,.03-.09,.04,.03,.16,.07,.32,.11,.51,.13-.08,.17-.11,.27-.17ZM-27.28-1.61c-.08-.01-.17-.02-.25-.03,0,.15-.02,.3-.03,.45,.04,0,.09,.01,.14,.02,.05-.15,.1-.3,.14-.44ZM13.88,8.63c.1,.13,.19,.25,.29,.38,.03-.01,.06-.02,.09-.04-.04-.16-.07-.32-.11-.51-.13,.08-.17,.11-.27,.17Zm-2.47,2.04c.07,0,.15,0,.22,0,0-.15,.02-.3,.03-.45-.17,.02-.24,.09-.26,.17-.02,.09,0,.19,0,.29Zm-4.66,.73c.21-.18,.36-.31,.61-.52-.44,.01-.57,.16-.61,.52Zm-5.34,1.56s-.07-.02-.11-.03c-.05,.15-.1,.31-.15,.46,.06,.01,.11,.03,.17,.04,.03-.16,.06-.32,.1-.48Zm.52-1.37c.14-.25,.21-.33,.2-.38-.01-.06-.11-.09-.17-.14-.05,.06-.12,.12-.13,.19,0,.08,.05,.16,.1,.33ZM36.75,29.08c-.17-.16-.25-.24-.35-.33-.08,.11-.14,.2-.24,.33,.2,0,.32,0,.6,0ZM23.82,12.24s.08,.05,.12,.08c.08-.13,.17-.25,.25-.38l-.12-.08c-.08,.13-.17,.25-.25,.38ZM6.5-2.7c.17,.16,.25,.24,.35,.33,.08-.11,.14-.2,.24-.33-.2,0-.32,0-.6,0ZM-10.32,13.76c-.12-.13-.19-.22-.28-.33-.09,.11-.16,.19-.27,.33,.21,0,.35,0,.55,0Zm24.28,.4s.08-.04,.11-.07c-.01-.08-.01-.17-.05-.23-.05-.07-.13-.13-.2-.19l-.11,.09c.08,.13,.16,.26,.24,.39Zm-17.6,.24c.04-.21,.09-.3,.07-.39,0-.07-.08-.13-.13-.19-.06,.04-.16,.08-.18,.14-.01,.05,.06,.13,.23,.44ZM4.34-5.73s-.07-.07-.11-.11c-.08,.08-.16,.16-.24,.23,.04,.04,.07,.08,.11,.11,.08-.08,.16-.16,.23-.24ZM-10.43,9.9s.04-.04,.06-.06c-.02-.02-.04-.06-.06-.06-.02,0-.04,.03-.06,.05,.02,.02,.04,.04,.06,.06Z" style="fill: #a46464;"/>
        <path d="M21.06,16.31c.28,.49,.6,.7,1.1,.8,1.11,.22,2.19,.6,3.29,.84,.88,.19,1.78,.28,2.66,.42,1.45,.23,2.89,.53,4.34,.7,2.33,.28,4.56,.99,6.83,1.49,.53,.12,1.07,.14,1.61,.2,.6,.07,1.2,.17,1.8,.18,1,.01,1.97,.23,2.95,.36,.87,.11,1.71,.31,2.53,.59,1.63,.55,2.73,1.6,2.9,3.42,.02,.17,.11,.34,.17,.5-.06,.24-.18,.47-.17,.7,.04,.68-.28,1.22-.62,1.75-.23,.35-.48,.7-.79,.98-.28,.25-.61,.54-1.05,.24-.12,.15-.24,.31-.34,.44-2.05,.2-4.02,.54-5.97,1.03-1.45,.36-2.9,.69-4.36,1.02-.17,.04-.36,0-.5,0-.12-.15-.21-.26-.33-.42-.17,.19-.3,.34-.56,.63-.63,.1-1.42,.22-2.22,.34-.89,.14-1.78,.27-2.66,.42-.91,.15-1.82,.33-2.74,.49-.86,.15-1.72,.26-2.57,.42-.55,.1-.54,.13-1.06-.04-.06,.09-.12,.18-.17,.25-2.63,.52-5.23,1.04-7.84,1.55-2.58,.5-5.17,.99-7.8,1.5-.17,.15-.37,.33-.6,.54-.28-.02-.57-.05-.84-.07-.26,.13-.53,.27-.67,.34-.53-.04-.93-.15-1.29-.07-1.52,.32-3.02,.71-4.53,1.05-2.04,.45-4.11,.79-6.13,1.33-2.19,.59-4.36,1.27-6.24,2.64-1.61,1.17-2.87,2.58-3.24,4.61-.09,.47-.1,.99-.02,1.46,.13,.75,.38,1.49,.58,2.24-.09,.04-.25,.09-.61,.23,.43,.12,.66,.19,.9,.26-.02,.02-.03,.04-.05,.07,.6,.45,1.22,.88,1.8,1.36,.25,.2,.47,.48,.61,.77,.98,2.06,.26,4.11-1.65,5.18-.92,.52-1.96,.37-2.84-.2-.58-.37-1.09-.87-1.58-1.37-1.93-1.95-3.1-4.33-3.77-6.97-.09-.37-.01-.79-.01-1.24,.15-.03,.29-.06,.43-.08,.14-.02,.29-.03,.47-.05-.02-.19-.03-.33-.06-.55-.26,.16-.46,.28-.69,.43-.08-.06-.25-.14-.25-.21,.04-.77-.49-1.48-.16-2.31,.2-.51,.12-1.13,.25-1.69,.32-1.38,.82-2.69,1.63-3.86,1.11-1.62,2.51-2.91,4.19-3.88,.28,.15,.53,.29,.95,.51-.03-.45-.05-.72-.07-1.07,.12-.07,.29-.19,.47-.28,.53-.25,1.08-.48,1.61-.73,.51-.24,1-.52,1.52-.74,2.24-.94,4.53-1.66,6.92-2.11,1.9-.36,3.78-.91,5.69-1.21,.92-.15,1.84-.29,2.71-.61,.95-.36,1.71-.95,2.14-1.94,.44-1,.78-2.05,.81-3.1,.03-.96-.24-1.97-.9-2.77-1.05-1.27-2.46-1.77-4.05-1.92-1.11-.1-2.24-.12-3.31-.4-1.28-.33-2.49-.92-3.18-2.18-.47-.85-.85-1.72-.48-2.72,.09-.25,.05-.55,.14-.79,.38-1.06,1.29-1.8,2.64-1.81,1.82-.01,3.59,.3,5.36,.68,.58,.13,1.17,.24,1.88,.38,.08-.06,.27-.19,.45-.31,.37,.09,.72,.17,1.1,.26,.1,.15,.22,.31,.37,.52,.61-.44,1.12-.08,1.69,.13,.83,.31,1.7,.56,2.57,.73,1.17,.24,2.36,.39,3.55,.56,.36,.05,.73,.02,1.1,.01,.94-.02,1.86,.13,2.77,.33,.19,.04,.41-.02,.62-.05,.27-.03,.53-.08,.86-.13Zm-2.83,12.34c.96-.66,2.13-.5,3.2-.71,1-.2,2.03-.22,3.03-.41,1.35-.25,2.68-.57,4.01-.91,.8-.2,1.58-.5,2.36-.75,0-.04-.02-.07-.03-.11-.3,0-.59,0-.92,0-.14,.1-.31,.22-.52,.37-.17-.2-.31-.38-.42-.51-.64-.09-1.23-.22-1.82-.26-.79-.05-1.54-.23-2.28-.46-1.46-.44-2.94-.78-4.44-1.04-.82-.14-1.63-.34-2.5-.52-.3,.13-.65,.28-1,.44-.79,.35-1.15,1.12-1.64,1.75-.27,.35-.24,.73,0,1.09,.35,.52,.71,1.04,1.09,1.54,.25,.32,.61,.49,1.03,.48,.27,0,.55,0,.84,0ZM6.3,15.84c-.09,.21-.16,.37-.19,.43,.3,.37,.55,.7,.81,1.01,.16,.18,.34,.34,.41,.41,.61-.13,1.08-.23,1.6-.35,.04-.05,.13-.16,.2-.24,.27,.05,.52,.1,.73,.14,.27-.47,.5-.85,.76-1.3,0-.08,0-.26,0-.5-.99-.16-1.96-.33-2.83-.47-.55-.16-1.01-.3-1.48-.44-.15,.44,.07,.59,.38,.74,.08,.04,.08,.26,.12,.42-.19,.05-.32,.09-.51,.14Zm25.33,9.64c.14,.13,.29,.27,.43,.4,.43-.31,.28-.66,.16-.99,.17-.36,.33-.71,.48-1.03-.12-.19-.21-.34-.3-.49-.31,.08-.62,.16-.8,.21-.47,.69,.24,1.25,.03,1.91ZM-18.6,50.27c-.03-.09-.11-.31-.18-.51-.38-.04-.72-.06-.82,.5,.2,.08,.42,.15,.62,.25,.06,.03,.08,.14,.13,.21-.25,.12-.48,.23-.74,.35,.26,.29,.42,.62,.88,.44,.04-.37,.07-.74,.12-1.24ZM9.35,31.92c-.35,.77-.29,.87,.65,1.3,.48-.24,.28-.65,.3-1.07-.35-.09-.65-.16-.94-.23Zm3.32-13.6c.26,.29,.47,.54,.72,.82,.2-.09,.38-.17,.55-.25-.1-.27-.17-.48-.24-.68-.29-.05-.55-.09-.81-.13-.06,.06-.12,.13-.21,.24ZM-14.04,52.84c-.61,.37-.69,.77-.51,1.28,.19,0,.39,0,.57,0-.02-.41-.04-.78-.06-1.28Zm4.02-11.98c.41-.48,.34-.81,.29-1.14-.36-.14-.64-.02-.65,.27-.01,.24,.2,.5,.37,.87Zm5.48-2.32c.38,.25,.6,.4,.84,.55,.11-.14,.18-.23,.27-.35-.13-.2-.24-.39-.39-.62-.22,.13-.39,.22-.72,.42ZM4.22,18.01c.36,.16,.54,.32,.71,.3,.16-.02,.3-.21,.47-.35-.21-.23-.35-.38-.5-.55-.2,.17-.36,.31-.68,.59Zm17.93,15.96c.18,0,.33,0,.47,0,.05,0,.1-.06,.14-.1-.3-.48-.66-.71-.88-.49,.08,.18,.17,.38,.26,.59Zm13.59-12.22c-.25-.26-.4-.43-.55-.59-.18,.11-.33,.2-.49,.3,.21,.47,.53,.47,1.04,.3Zm7.77,.92c-.2-.08-.33-.14-.5-.2-.08,.13-.16,.25-.22,.34,.19,.32,.4,.43,.72,.27v-.41Zm-34.55-3.09c.15,.17,.28,.31,.44,.48,.16-.18,.27-.31,.39-.45-.12-.13-.2-.22-.28-.31-.17,.09-.32,.17-.54,.28Zm18.15,2.65c.08-.22,.14-.36,.22-.58-.29,.04-.48,.07-.69,.1,.02,.17,.03,.29,.04,.43,.14,.02,.26,.03,.43,.05ZM-.92,15.37c.29-.1,.49-.17,.76-.27-.24-.19-.42-.32-.67-.52-.03,.29-.05,.49-.09,.78Zm23.53,6.65c-.21-.32-.41-.44-.73-.23,.01,.13,.03,.27,.05,.5,.27-.11,.47-.18,.68-.27Zm.01,9.19c-.21-.32-.41-.44-.73-.23,.01,.13,.03,.27,.05,.5,.27-.11,.47-.18,.68-.27Zm-19.89,1.15c.02-.28,.03-.5,.04-.78-.28,.17-.49,.29-.74,.45,.26,.13,.44,.21,.7,.33Zm-19.78,20.07c-.18-.27-.39-.39-.73-.16,.12,.15,.23,.3,.37,.48,.15-.13,.26-.23,.36-.32ZM45.22,26.73c.23,.3,.43,.4,.85,.03-.15-.14-.29-.27-.43-.4-.21,.18-.3,.26-.42,.37Zm-28.19,7.1c.22,.16,.36,.26,.49,.36,.25-.33,.13-.53-.14-.73-.09,.1-.19,.2-.35,.37ZM.34,34.48c-.12,.13-.19,.22-.27,.3,.15,.08,.28,.15,.43,.23,.13-.08,.26-.16,.41-.25-.19-.1-.34-.18-.56-.29Zm-3.22-.18c-.06-.06-.11-.12-.17-.18-.13,.15-.26,.3-.41,.48,.12,.1,.21,.17,.35,.29,.09-.23,.16-.41,.24-.59Zm-11.75,17.09c-.25,.15-.42,.25-.75,.45,.36,.06,.51,.08,.7,.11,.01-.18,.02-.3,.05-.56ZM-6.55,34.16c.23-.06,.37-.09,.68-.17-.31-.18-.47-.27-.68-.38v.56Zm.96,4.75c-.12,.16-.2,.28-.29,.4,.11,.12,.19,.21,.29,.32,.09-.16,.16-.31,.27-.5-.06-.05-.13-.1-.28-.21ZM40.95,21.85c-.05,.05-.11,.09-.16,.14,.08,.14,.17,.27,.28,.45,.11-.14,.18-.22,.26-.32-.15-.1-.26-.18-.37-.26Zm-2.85,9.64c-.23-.09-.38-.16-.54-.22-.03,.04-.06,.08-.08,.11,.09,.13,.17,.26,.29,.44,.11-.11,.19-.19,.33-.33Zm-30.57,5.8c-.03-.08-.05-.16-.08-.24-.19,.08-.38,.16-.57,.24,.02,.06,.05,.12,.07,.18,.19-.06,.39-.12,.58-.18Zm25.54-10.32c-.02-.12-.03-.18-.05-.31-.16,.03-.32,.06-.48,.09,0,.05,0,.11,.01,.16,.17,.02,.33,.03,.52,.05ZM-7,39.79c-.05,.13-.08,.21-.13,.34,.19,.02,.34,.03,.66,.06-.25-.19-.38-.29-.53-.4Zm9.06-6.1c-.13-.12-.22-.24-.25-.22-.1,.04-.19,.14-.3,.23,.13,.11,.2,.18,.28,.25,.11-.1,.17-.16,.27-.25Zm36.88-4c.1,.1,.19,.18,.3,.29,.1-.1,.18-.19,.29-.3-.11-.1-.19-.18-.31-.28-.09,.1-.17,.19-.28,.3ZM-19.08,49.3s-.02-.06-.04-.09c-.16,.03-.32,.06-.51,.1,.07,.12,.1,.17,.16,.27,.13-.09,.26-.19,.38-.28ZM31.12,33.07c.06-.18,.11-.26,.1-.34,0-.07-.08-.13-.12-.19-.06,.04-.16,.08-.18,.14-.01,.05,.06,.13,.2,.39Zm-6.34-9.16c.09-.08,.18-.13,.19-.19,0-.06-.08-.13-.12-.19-.06,.04-.16,.08-.18,.14-.01,.05,.06,.13,.11,.24Zm-13.24-1.88c-.06,.18-.11,.26-.1,.34,0,.07,.08,.13,.12,.19,.06-.04,.16-.08,.18-.14,.01-.05-.06-.13-.2-.39Zm29.53,2.46s-.05,.06-.08,.09c.08,.07,.15,.14,.23,.22,.03-.03,.06-.06,.09-.09-.08-.07-.16-.14-.24-.21ZM-18.3,50.54s.07,.07,.11,.11c.08-.08,.16-.16,.24-.23-.04-.04-.07-.08-.11-.11-.08,.08-.16,.16-.23,.24ZM20.72,17.02v-.07c-.09,0-.19,0-.28,0v.07c.09,0,.19,0,.28,0Zm-12.11,20.01s0-.06-.01-.09c-.08,.01-.16,.02-.24,.03v.1c.09-.01,.17-.02,.25-.03Zm3.88-12.34h-.13s.04,.06,.06,.06c.02,0,.04-.03,.07-.06Z" style="fill: #a46464;"/>
        <path d="M43.35,7.6c.46-.02,.86,.32,1.22,.67,1.47,1.37,2.45,3,2.82,5.02,.25,1.37,.17,2.71-.05,4.06-.03,.17-.3,.29-.5,.48,.06,.04,.17,.12,.33,.23-.66,2.22-1.74,4.2-3.53,5.72-1.29,1.1-2.8,1.83-4.45,2.23-1.23,.29-2.47,.47-3.73,.6-1.13,.12-2.24,.12-3.36,.12-6.27,.01-12.55-.06-18.82,.02-1.82,.02-3.65,.24-5.47,.12-1.35-.09-2.72-.04-4.06-.33-.47-.1-.95-.1-1.43-.17-1.52-.22-3.02-.56-4.4-1.2-1.59-.74-3-1.75-4.07-3.22-.85-1.16-1.51-2.37-1.95-3.73-.45-1.39-.43-2.78-.19-4.2,.34-2.01,1.24-3.72,2.45-5.33,.91-1.21,2.04-2.11,3.31-2.9,1.51-.93,3.17-1.32,4.91-1.55,2.08-.27,4.16-.35,6.26-.34,4.01,.02,8.02,0,12.03,.03,.92,0,1.85,.22,2.77,.33,.27,.03,.55,.03,.82,.03,4.13,0,8.26,.03,12.39,0,1.5,0,2.84,.47,4.09,1.22,.69,.41,1.35,.9,2,1.37,.2,.14,.33,.37,.6,.69Zm-27.02,12.33c1.31-.06,2.61-.14,3.92-.19,2.28-.1,4.56,.13,6.85-.14,1.06-.13,2.18-.2,3.26,.13,.43,.13,.89,.19,1.33,.19,1.51,.02,3.03,.11,4.51-.35,1.26-.39,2.58-.69,3.15-2.11,.03-.06,.16-.08,.22-.14,.05-.06,.07-.16,.13-.29-.12-.11-.24-.23-.31-.29-.14-.7-.25-1.35-.4-1.99-.33-1.38-1.27-2.35-2.32-3.16-.72-.55-1.61-.94-2.61-.85-.81,.08-1.62,0-2.44,.15-.78,.14-1.62-.03-2.43-.11-1.51-.15-3.03-.02-4.55-.21-.8-.1-1.62,.03-2.44,.13-1.41,.17-2.84,.17-4.27,.21-1.35,.03-2.69,0-4.04,0-.75,0-1.51,.06-2.22-.31-.17-.09-.42-.07-.63-.05-1.06,.05-2.11,.16-3.17,.16-1.12,0-2.23,.1-3.31,.39-2.31,.61-3.98,1.97-4.78,4.3-.25,.73-.06,1.29,.41,1.82,.97,1.08,2.22,1.75,3.53,2.3,.66,.27,1.34,.51,2.1,.35,.76-.16,1.54-.31,2.31-.31,1.45,0,2.91,.11,4.36,.17,.03,0,.06,0,.09,0,.89,.34,1.81,.11,2.68,.19,.21-.15,.37-.27,.55-.39,.17,.13,.31,.23,.53,.4Zm4.44,1.06c.42,.27,.81,.51,1.19,.75,.1-.11,.16-.17,.26-.28-.45-.34-.88-.67-1.39-1.07-.03,.27-.04,.43-.06,.6Zm-12.53,1.91q-.64,.06-.61,.68c.43,.02,.68-.13,.61-.68Zm23.64-2.01c-.18,.11-.34,.2-.55,.33,.23,.22,.39,.37,.55,.52,.33-.28,.35-.53,0-.85ZM1.75,10.76c-.34-.08-.55,.03-.7,.46,.07,.06,.18,.15,.27,.24,.26-.2,.64-.23,.42-.7Zm13.1,10.36c-.33-.4-.59-.34-.87,.02,.31,.33,.57,.37,.87-.02Zm25.68,2.75c.31-.26,.28-.5,.1-.84-.17,.16-.31,.29-.51,.48,.16,.14,.27,.24,.41,.36Zm-1.54-14.03c-.36,.13-.28,.35-.16,.56,.04,.06,.12,.1,.21,.16,.1-.12,.18-.23,.33-.41-.15-.12-.26-.21-.38-.31ZM1.11,10.6q.37-.37,.05-.95c-.02,.4-.03,.63-.05,.95Zm45.62,4.05c-.07,0-.14,.01-.21,.02-.05,.19-.18,.41,.25,.53-.02-.22-.03-.38-.04-.55Zm-1.42-3.65c.34,.23,.41,0,.57-.15-.11-.11-.18-.17-.27-.25-.1,.14-.19,.26-.3,.4Zm-15.93-1.66c-.19-.09-.34-.16-.48-.23-.03,.04-.06,.07-.09,.11,.08,.13,.16,.27,.25,.42,.11-.1,.19-.18,.32-.3Zm10.55,0c-.27,.15-.37,.35-.21,.64,.27-.15,.37-.35,.21-.64ZM15.87,20.47c.01-.45-.18-.36-.51-.27,.24,.13,.37,.2,.51,.27Zm13.83,2.36c0-.47-.24-.27-.58-.28,.28,.13,.42,.2,.58,.28ZM-1.52,19.53c.14-.25,.21-.33,.2-.38-.01-.06-.11-.09-.17-.14-.05,.06-.12,.12-.13,.19,0,.08,.05,.16,.1,.33Zm41.68-6.49c.16,.12,.24,.18,.41,.3-.02-.24-.03-.37-.05-.6-.16,.13-.25,.2-.36,.3ZM17.25,7.34c.1,.09,.19,.16,.33,.28,0-.2,0-.35,0-.55-.13,.11-.22,.18-.33,.27Zm25.72,13.87s-.08-.07-.12-.11c-.07,.08-.13,.15-.2,.23,.03,.03,.05,.06,.08,.08,.08-.07,.17-.14,.25-.2Z" style="fill: #a46464;"/>
        <path d="M52.33,24.31c.47,1.19,.7,2.4,.54,3.73-.11,.92-.55,1.52-1.17,2.02-1.09,.89-2.36,1.28-3.78,.97-.16-.04-.35-.07-.48-.17-1.25-.94-2.8-1.24-4.18-1.9-.94,.01-1.64-.62-2.38-1.04-.57-.32-.94-1.01-1.48-1.61-.18,.07-.46,.15-.74,.28-.76,.35-1.51,.28-2.26,0-1.22-.44-2.29-1.14-3.41-1.78-.96-.55-2.09-.81-3.14-1.19-.25-.09-.52-.15-.77-.25-.86-.34-1.74-.65-2.57-1.06-.97-.47-1.89-1.02-2.78-1.51-.08-.31-.13-.53-.2-.78-.19,.14-.34,.25-.47,.34-.11,0-.18,.02-.24,0-2.71-1.03-5.43-2.03-8.13-3.1-.77-.31-1.44-.86-2.19-1.23-.54-.27-1.11-.52-1.69-.64-1.22-.24-2.44-.44-3.61-.94-2.62-1.12-5.27-2.15-7.89-3.25-.94-.39-1.88-.8-2.73-1.36-.82-.54-1.44-1.34-1.62-2.37-.17-.91-.05-1.81,.2-2.69,.36-1.26,1.89-2.54,3.69-2.41,.43,.03,.87,.14,1.27,.29,1.22,.47,2.47,.88,3.61,1.49,2.94,1.57,6.08,2.63,9.13,3.92,3.06,1.3,6.15,2.53,9.23,3.78,.52,.21,.99,.49,1.54,.65,.52,.15,1.02,.39,1.53,.61,2.15,.94,4.3,1.89,6.48,2.85,.06,.33,.11,.61,.19,1.06,.28-.25,.48-.42,.77-.67,.5,.14,1.09,.28,1.65,.49,1.09,.41,2.16,.88,3.24,1.31,.28,.11,.57,.19,.92,.31,.01,.26-.2,.73,.5,.9,.23-.12,.56-.28,.89-.45,1.57,.55,3.31,.73,4.72,2.08-.01-.04,.03,.11,.1,.33,.23-.06,.45-.11,.78-.19,.58,.32,1.21,.74,1.89,1.01,1.07,.43,2.18,.75,3.27,1.13,.32,.11,.65,.23,.95,.4,.29,.17,.53,.41,.81,.63Zm-20.62-3.13c.54-.03,.8-.22,.7-.64-.1-.42-.42-.5-.84-.26,.04,.27,.09,.55,.14,.9ZM8.41,13.64q.74-.3,.42-.95-.61,.25-.42,.95Zm-2.77-4.26c-.64,.59-.73,1.01-.26,1.19,.17-.16,.36-.33,.58-.52-.1-.22-.19-.4-.31-.66ZM52.16,28.36c.68-.58,.64-.77-.11-1.03-.34,.36-.07,.66,.11,1.03Zm-7.4-.92c-.24,.05-.45,.1-.66,.15,.1,.3,.16,.49,.25,.75,.29-.16,.53-.29,.8-.44-.18-.21-.31-.35-.4-.45ZM1.53,6.35c-.27,.14-.51,.27-.8,.41,.15,.23,.25,.38,.37,.56,.23-.2,.4-.35,.58-.5-.05-.15-.09-.27-.16-.47ZM15.76,15.91c.09-.31,.15-.52,.22-.77-.21-.05-.36-.09-.54-.13-.08,.27-.14,.48-.2,.69l.51,.21Zm26.33,8.13c.19,.05,.34,.09,.53,.14,.1-.32,.18-.58,.28-.89-.43,.12-.78,.18-.82,.75ZM-3.42,8.83c.29-.09,.55-.16,.85-.25-.1-.2-.18-.33-.25-.46-.44,.04-.67,.2-.6,.71Zm10.78-1.43c-.19-.28-.3-.45-.49-.73-.13,.37-.21,.6-.34,.96,.31-.09,.49-.14,.83-.23ZM28.58,15.97c-.09-.33-.21-.58-.59-.44,.02,.2,.04,.38,.07,.63,.23-.08,.37-.13,.52-.19Zm-10.5,1.16c.08-.23,.14-.4,.27-.76-.36,.17-.55,.26-.83,.4,.23,.15,.36,.23,.56,.36Zm11.55-.63c.18-.12,.33-.22,.6-.4-.32-.09-.5-.14-.8-.23,.09,.29,.14,.43,.2,.63Zm12.59,11.13c.06-.05,.12-.09,.18-.14-.05-.16-.11-.32-.17-.53-.19,.12-.32,.21-.54,.35,.24,.14,.39,.23,.54,.32ZM22.4,13.06c.09,.39,.14,.59,.23,.99,.29-.48,.21-.68-.23-.99Zm-11.26-4.14c.39-.08,.57-.24,.24-.58-.1,.24-.17,.41-.24,.58Zm-1.71,1.25c-.03-.07-.07-.14-.1-.21-.17,.04-.34,.08-.54,.13,.08,.16,.13,.27,.2,.42,.16-.13,.3-.24,.43-.34Zm39.99,13.99c-.08-.03-.15-.06-.23-.09-.07,.15-.15,.3-.22,.46,.18,.05,.28,0,.34-.06,.06-.08,.08-.2,.11-.3Zm-12.03,1.41c-.08-.18-.13-.34-.17-.34-.13,0-.25,.06-.41,.11,.09,.17,.14,.27,.19,.37,.15-.06,.24-.09,.38-.14Zm-8.39-3.78l.12-.05c-.05-.12-.09-.23-.14-.35-.04,.02-.08,.03-.13,.05,.05,.12,.09,.23,.14,.35Zm2.38-1.93l.05-.13s-.08,.01-.09,.03c0,.02,.02,.06,.03,.1Z" style="fill: #a46464;"/>
      </g>
    </g>
  </g>
</svg>